<svg width="621" height="42" viewBox="0 0 621 42" fill="none" xmlns="http://www.w3.org/2000/svg">
<path d="M28.207 11.7969H22.3633C22.1966 10.8385 21.8893 9.98958 21.4414 9.25C20.9935 8.5 20.4362 7.86458 19.7695 7.34375C19.1029 6.82292 18.3424 6.43229 17.4883 6.17187C16.6445 5.90104 15.7331 5.76563 14.7539 5.76563C13.0143 5.76563 11.4727 6.20312 10.1289 7.07812C8.78516 7.94271 7.73307 9.21354 6.97266 10.8906C6.21224 12.5573 5.83203 14.5937 5.83203 17C5.83203 19.4479 6.21224 21.5104 6.97266 23.1875C7.74349 24.8542 8.79557 26.1146 10.1289 26.9687C11.4727 27.8125 13.0091 28.2344 14.7383 28.2344C15.6966 28.2344 16.5924 28.1094 17.4258 27.8594C18.2695 27.599 19.0247 27.2187 19.6914 26.7187C20.3685 26.2187 20.9362 25.6042 21.3945 24.875C21.8633 24.1458 22.1862 23.3125 22.3633 22.375L28.207 22.4062C27.9883 23.9271 27.5143 25.3542 26.7852 26.6875C26.0664 28.0208 25.1237 29.1979 23.957 30.2188C22.7904 31.2292 21.4258 32.0208 19.8633 32.5937C18.3008 33.1562 16.5664 33.4375 14.6602 33.4375C11.8477 33.4375 9.33724 32.7865 7.12891 31.4844C4.92057 30.1823 3.18099 28.3021 1.91016 25.8437C0.639323 23.3854 0.00390631 20.4375 0.00390631 17C0.00390631 13.5521 0.644531 10.6042 1.92578 8.15625C3.20703 5.69792 4.95182 3.81771 7.16016 2.51562C9.36849 1.21354 11.8685 0.562499 14.6602 0.562499C16.4414 0.562499 18.0977 0.812499 19.6289 1.3125C21.1602 1.8125 22.5247 2.54687 23.7227 3.51562C24.9206 4.47396 25.9049 5.65104 26.6758 7.04688C27.457 8.43229 27.9674 10.0156 28.207 11.7969ZM38.9219 18.9375V33H33.2656V0.999999H38.7969V13.0781H39.0781C39.6406 11.724 40.5104 10.6562 41.6875 9.875C42.875 9.08333 44.3854 8.6875 46.2188 8.6875C47.8854 8.6875 49.3385 9.03646 50.5781 9.73437C51.8177 10.4323 52.776 11.4531 53.4531 12.7969C54.1406 14.1406 54.4844 15.7812 54.4844 17.7187V33H48.8281V18.5937C48.8281 16.9792 48.4115 15.724 47.5781 14.8281C46.7552 13.9219 45.599 13.4687 44.1094 13.4687C43.1094 13.4687 42.2135 13.6875 41.4219 14.125C40.6406 14.5521 40.026 15.1719 39.5781 15.9844C39.1406 16.7969 38.9219 17.7812 38.9219 18.9375ZM70.875 33.4688C68.4688 33.4688 66.3906 32.9688 64.6406 31.9688C62.901 30.9583 61.5625 29.5312 60.625 27.6875C59.6875 25.8333 59.2188 23.651 59.2188 21.1406C59.2188 18.6719 59.6875 16.5052 60.625 14.6406C61.5729 12.7656 62.8958 11.3073 64.5938 10.2656C66.2917 9.21354 68.2865 8.6875 70.5781 8.6875C72.0573 8.6875 73.4531 8.92708 74.7656 9.40625C76.0885 9.875 77.2552 10.6042 78.2656 11.5937C79.2865 12.5833 80.0885 13.8437 80.6719 15.375C81.2552 16.8958 81.5469 18.7083 81.5469 20.8125V22.5469H61.875V18.7344H76.125C76.1146 17.651 75.8802 16.6875 75.4219 15.8437C74.9635 14.9896 74.3229 14.3177 73.5 13.8281C72.6875 13.3385 71.7396 13.0937 70.6562 13.0937C69.5 13.0937 68.4844 13.375 67.6094 13.9375C66.7344 14.4896 66.0521 15.2187 65.5625 16.125C65.0833 17.0208 64.8385 18.0052 64.8281 19.0781V22.4062C64.8281 23.8021 65.0833 25 65.5938 26C66.1042 26.9896 66.8177 27.75 67.7344 28.2812C68.651 28.8021 69.724 29.0625 70.9531 29.0625C71.776 29.0625 72.5208 28.9479 73.1875 28.7187C73.8542 28.4792 74.4323 28.1302 74.9219 27.6719C75.4115 27.2135 75.7813 26.6458 76.0313 25.9687L81.3125 26.5625C80.9792 27.9583 80.3438 29.1771 79.4063 30.2188C78.4792 31.25 77.2917 32.0521 75.8438 32.625C74.3958 33.1875 72.7396 33.4688 70.875 33.4688ZM96.8008 33.4688C94.4049 33.4688 92.3477 32.9427 90.6289 31.8906C88.9206 30.8385 87.6029 29.3854 86.6758 27.5312C85.7591 25.6667 85.3008 23.5208 85.3008 21.0937C85.3008 18.6562 85.7695 16.5052 86.707 14.6406C87.6445 12.7656 88.9674 11.3073 90.6758 10.2656C92.3945 9.21354 94.4258 8.6875 96.7695 8.6875C98.7174 8.6875 100.441 9.04687 101.941 9.76562C103.452 10.474 104.655 11.4792 105.551 12.7812C106.447 14.0729 106.957 15.5833 107.082 17.3125H101.676C101.457 16.1562 100.936 15.1927 100.113 14.4219C99.3008 13.6406 98.2122 13.25 96.8477 13.25C95.6914 13.25 94.6758 13.5625 93.8008 14.1875C92.9258 14.8021 92.2435 15.6875 91.7539 16.8438C91.2747 18 91.0352 19.3854 91.0352 21C91.0352 22.6354 91.2747 24.0417 91.7539 25.2187C92.2331 26.3854 92.9049 27.2865 93.7695 27.9219C94.6445 28.5469 95.6706 28.8594 96.8477 28.8594C97.681 28.8594 98.4258 28.7031 99.082 28.3906C99.7487 28.0677 100.306 27.6042 100.754 27C101.202 26.3958 101.509 25.6615 101.676 24.7969H107.082C106.947 26.4948 106.447 28 105.582 29.3125C104.717 30.6146 103.54 31.6354 102.051 32.375C100.561 33.1042 98.8112 33.4688 96.8008 33.4688ZM116.883 25.4687L116.867 18.6406H117.773L126.398 9H133.008L122.398 20.8125H121.227L116.883 25.4687ZM111.727 33V0.999999H117.383V33H111.727ZM126.789 33L118.977 22.0781L122.789 18.0938L133.555 33H126.789ZM158.16 33.4688C155.816 33.4688 153.785 32.9531 152.066 31.9219C150.348 30.8906 149.014 29.4479 148.066 27.5937C147.129 25.7396 146.66 23.5729 146.66 21.0937C146.66 18.6146 147.129 16.4427 148.066 14.5781C149.014 12.7135 150.348 11.2656 152.066 10.2344C153.785 9.20313 155.816 8.6875 158.16 8.6875C160.504 8.6875 162.535 9.20313 164.254 10.2344C165.973 11.2656 167.301 12.7135 168.238 14.5781C169.186 16.4427 169.66 18.6146 169.66 21.0937C169.66 23.5729 169.186 25.7396 168.238 27.5937C167.301 29.4479 165.973 30.8906 164.254 31.9219C162.535 32.9531 160.504 33.4688 158.16 33.4688ZM158.191 28.9375C159.462 28.9375 160.525 28.5885 161.379 27.8906C162.233 27.1823 162.868 26.2344 163.285 25.0469C163.712 23.8594 163.926 22.5365 163.926 21.0781C163.926 19.6094 163.712 18.2812 163.285 17.0937C162.868 15.8958 162.233 14.9427 161.379 14.2344C160.525 13.526 159.462 13.1719 158.191 13.1719C156.889 13.1719 155.806 13.526 154.941 14.2344C154.087 14.9427 153.447 15.8958 153.02 17.0937C152.603 18.2812 152.395 19.6094 152.395 21.0781C152.395 22.5365 152.603 23.8594 153.02 25.0469C153.447 26.2344 154.087 27.1823 154.941 27.8906C155.806 28.5885 156.889 28.9375 158.191 28.9375ZM189.758 22.9062V9H195.414V33H189.93V28.7344H189.68C189.138 30.0781 188.247 31.1771 187.008 32.0312C185.779 32.8854 184.263 33.3125 182.461 33.3125C180.888 33.3125 179.497 32.9635 178.289 32.2656C177.091 31.5573 176.154 30.5312 175.477 29.1875C174.799 27.8333 174.461 26.1979 174.461 24.2812V9H180.117V23.4062C180.117 24.9271 180.534 26.1354 181.367 27.0313C182.201 27.9271 183.294 28.375 184.648 28.375C185.482 28.375 186.289 28.1719 187.07 27.7656C187.852 27.3594 188.492 26.7552 188.992 25.9531C189.503 25.1406 189.758 24.125 189.758 22.9062ZM201.23 33V9H206.715V13H206.965C207.402 11.6146 208.152 10.5469 209.215 9.79688C210.288 9.03646 211.512 8.65625 212.887 8.65625C213.199 8.65625 213.548 8.67187 213.934 8.70312C214.329 8.72396 214.658 8.76042 214.918 8.8125V14.0156C214.678 13.9323 214.298 13.8594 213.777 13.7969C213.267 13.724 212.772 13.6875 212.293 13.6875C211.262 13.6875 210.335 13.9115 209.512 14.3594C208.699 14.7969 208.059 15.4062 207.59 16.1875C207.121 16.9687 206.887 17.8698 206.887 18.8906V33H201.23ZM236.496 33.4844C234.975 33.4844 233.605 33.2135 232.387 32.6719C231.178 32.1198 230.22 31.3073 229.512 30.2344C228.814 29.1615 228.465 27.8385 228.465 26.2656C228.465 24.9115 228.715 23.7917 229.215 22.9062C229.715 22.0208 230.397 21.3125 231.262 20.7812C232.126 20.25 233.1 19.849 234.184 19.5781C235.277 19.2969 236.408 19.0937 237.574 18.9687C238.98 18.8229 240.121 18.6927 240.996 18.5781C241.871 18.4531 242.507 18.2656 242.902 18.0156C243.309 17.7552 243.512 17.3542 243.512 16.8125V16.7188C243.512 15.5417 243.163 14.6302 242.465 13.9844C241.767 13.3385 240.762 13.0156 239.449 13.0156C238.064 13.0156 236.965 13.3177 236.152 13.9219C235.35 14.526 234.809 15.2396 234.527 16.0625L229.246 15.3125C229.663 13.8542 230.35 12.6354 231.309 11.6562C232.267 10.6667 233.439 9.92708 234.824 9.4375C236.21 8.9375 237.741 8.6875 239.418 8.6875C240.574 8.6875 241.725 8.82292 242.871 9.09375C244.017 9.36458 245.064 9.8125 246.012 10.4375C246.96 11.0521 247.72 11.8906 248.293 12.9531C248.876 14.0156 249.168 15.3437 249.168 16.9375V33H243.73V29.7031H243.543C243.199 30.3698 242.715 30.9948 242.09 31.5781C241.475 32.151 240.699 32.6146 239.762 32.9687C238.835 33.3125 237.746 33.4844 236.496 33.4844ZM237.965 29.3281C239.1 29.3281 240.085 29.1042 240.918 28.6562C241.751 28.1979 242.392 27.5937 242.84 26.8437C243.298 26.0937 243.527 25.276 243.527 24.3906V21.5625C243.35 21.7083 243.048 21.8437 242.621 21.9687C242.204 22.0937 241.736 22.2031 241.215 22.2969C240.694 22.3906 240.178 22.474 239.668 22.5469C239.158 22.6198 238.715 22.6823 238.34 22.7344C237.496 22.849 236.741 23.0365 236.074 23.2969C235.408 23.5573 234.882 23.9219 234.496 24.3906C234.111 24.849 233.918 25.4427 233.918 26.1719C233.918 27.2135 234.298 28 235.059 28.5312C235.819 29.0625 236.788 29.3281 237.965 29.3281ZM259.809 33L253.027 9H258.793L263.012 25.875H263.23L267.543 9H273.246L277.559 25.7812H277.793L281.949 9H287.73L280.934 33H275.043L270.543 16.7812H270.215L265.715 33H259.809ZM301.617 33.4688C299.211 33.4688 297.133 32.9688 295.383 31.9688C293.643 30.9583 292.305 29.5312 291.367 27.6875C290.43 25.8333 289.961 23.651 289.961 21.1406C289.961 18.6719 290.43 16.5052 291.367 14.6406C292.315 12.7656 293.638 11.3073 295.336 10.2656C297.034 9.21354 299.029 8.6875 301.32 8.6875C302.799 8.6875 304.195 8.92708 305.508 9.40625C306.831 9.875 307.997 10.6042 309.008 11.5937C310.029 12.5833 310.831 13.8437 311.414 15.375C311.997 16.8958 312.289 18.7083 312.289 20.8125V22.5469H292.617V18.7344H306.867C306.857 17.651 306.622 16.6875 306.164 15.8437C305.706 14.9896 305.065 14.3177 304.242 13.8281C303.43 13.3385 302.482 13.0937 301.398 13.0937C300.242 13.0937 299.227 13.375 298.352 13.9375C297.477 14.4896 296.794 15.2187 296.305 16.125C295.826 17.0208 295.581 18.0052 295.57 19.0781V22.4062C295.57 23.8021 295.826 25 296.336 26C296.846 26.9896 297.56 27.75 298.477 28.2812C299.393 28.8021 300.466 29.0625 301.695 29.0625C302.518 29.0625 303.263 28.9479 303.93 28.7187C304.596 28.4792 305.174 28.1302 305.664 27.6719C306.154 27.2135 306.523 26.6458 306.773 25.9687L312.055 26.5625C311.721 27.9583 311.086 29.1771 310.148 30.2188C309.221 31.25 308.034 32.0521 306.586 32.625C305.138 33.1875 303.482 33.4688 301.617 33.4688ZM336.043 15.3438L330.887 15.9062C330.741 15.3854 330.486 14.8958 330.121 14.4375C329.767 13.9792 329.288 13.6094 328.684 13.3281C328.079 13.0469 327.34 12.9062 326.465 12.9062C325.288 12.9062 324.298 13.1615 323.496 13.6719C322.704 14.1823 322.314 14.8437 322.324 15.6562C322.314 16.3542 322.569 16.9219 323.09 17.3594C323.621 17.7969 324.496 18.1562 325.715 18.4375L329.809 19.3125C332.079 19.8021 333.767 20.5781 334.871 21.6406C335.986 22.7031 336.548 24.0937 336.559 25.8125C336.548 27.3229 336.105 28.6562 335.23 29.8125C334.366 30.9583 333.163 31.8542 331.621 32.5C330.079 33.1458 328.309 33.4688 326.309 33.4688C323.371 33.4688 321.007 32.8542 319.215 31.625C317.423 30.3854 316.355 28.6615 316.012 26.4531L321.527 25.9219C321.777 27.0052 322.309 27.8229 323.121 28.375C323.934 28.9271 324.991 29.2031 326.293 29.2031C327.637 29.2031 328.715 28.9271 329.527 28.375C330.35 27.8229 330.762 27.1406 330.762 26.3281C330.762 25.6406 330.496 25.0729 329.965 24.625C329.444 24.1771 328.632 23.8333 327.527 23.5937L323.434 22.7344C321.132 22.2552 319.428 21.4479 318.324 20.3125C317.22 19.1667 316.673 17.7187 316.684 15.9687C316.673 14.4896 317.074 13.2083 317.887 12.125C318.71 11.0312 319.85 10.1875 321.309 9.59375C322.777 8.98958 324.47 8.6875 326.387 8.6875C329.199 8.6875 331.413 9.28646 333.027 10.4844C334.652 11.6823 335.658 13.3021 336.043 15.3438ZM351.691 33.4688C349.348 33.4688 347.316 32.9531 345.598 31.9219C343.879 30.8906 342.546 29.4479 341.598 27.5937C340.66 25.7396 340.191 23.5729 340.191 21.0937C340.191 18.6146 340.66 16.4427 341.598 14.5781C342.546 12.7135 343.879 11.2656 345.598 10.2344C347.316 9.20313 349.348 8.6875 351.691 8.6875C354.035 8.6875 356.066 9.20313 357.785 10.2344C359.504 11.2656 360.832 12.7135 361.77 14.5781C362.717 16.4427 363.191 18.6146 363.191 21.0937C363.191 23.5729 362.717 25.7396 361.77 27.5937C360.832 29.4479 359.504 30.8906 357.785 31.9219C356.066 32.9531 354.035 33.4688 351.691 33.4688ZM351.723 28.9375C352.993 28.9375 354.056 28.5885 354.91 27.8906C355.764 27.1823 356.4 26.2344 356.816 25.0469C357.243 23.8594 357.457 22.5365 357.457 21.0781C357.457 19.6094 357.243 18.2812 356.816 17.0937C356.4 15.8958 355.764 14.9427 354.91 14.2344C354.056 13.526 352.993 13.1719 351.723 13.1719C350.421 13.1719 349.337 13.526 348.473 14.2344C347.618 14.9427 346.978 15.8958 346.551 17.0937C346.134 18.2812 345.926 19.6094 345.926 21.0781C345.926 22.5365 346.134 23.8594 346.551 25.0469C346.978 26.2344 347.618 27.1823 348.473 27.8906C349.337 28.5885 350.421 28.9375 351.723 28.9375ZM367.992 33V9H373.398V13.0781H373.68C374.18 11.7031 375.008 10.6302 376.164 9.85937C377.32 9.07812 378.701 8.6875 380.305 8.6875C381.93 8.6875 383.299 9.08333 384.414 9.875C385.539 10.6562 386.331 11.724 386.789 13.0781H387.039C387.57 11.7448 388.466 10.6823 389.727 9.89063C390.997 9.08854 392.503 8.6875 394.242 8.6875C396.451 8.6875 398.253 9.38542 399.648 10.7812C401.044 12.1771 401.742 14.2135 401.742 16.8906V33H396.07V17.7656C396.07 16.276 395.674 15.1875 394.883 14.5C394.091 13.8021 393.122 13.4531 391.977 13.4531C390.612 13.4531 389.544 13.8802 388.773 14.7344C388.013 15.5781 387.633 16.6771 387.633 18.0312V33H382.086V17.5312C382.086 16.2917 381.711 15.3021 380.961 14.5625C380.221 13.8229 379.253 13.4531 378.055 13.4531C377.242 13.4531 376.503 13.6615 375.836 14.0781C375.169 14.4844 374.638 15.0625 374.242 15.8125C373.846 16.5521 373.648 17.4167 373.648 18.4062V33H367.992ZM418.105 33.4688C415.699 33.4688 413.621 32.9688 411.871 31.9688C410.132 30.9583 408.793 29.5312 407.855 27.6875C406.918 25.8333 406.449 23.651 406.449 21.1406C406.449 18.6719 406.918 16.5052 407.855 14.6406C408.803 12.7656 410.126 11.3073 411.824 10.2656C413.522 9.21354 415.517 8.6875 417.809 8.6875C419.288 8.6875 420.684 8.92708 421.996 9.40625C423.319 9.875 424.486 10.6042 425.496 11.5937C426.517 12.5833 427.319 13.8437 427.902 15.375C428.486 16.8958 428.777 18.7083 428.777 20.8125V22.5469H409.105V18.7344H423.355C423.345 17.651 423.111 16.6875 422.652 15.8437C422.194 14.9896 421.553 14.3177 420.73 13.8281C419.918 13.3385 418.97 13.0937 417.887 13.0937C416.73 13.0937 415.715 13.375 414.84 13.9375C413.965 14.4896 413.283 15.2187 412.793 16.125C412.314 17.0208 412.069 18.0052 412.059 19.0781V22.4062C412.059 23.8021 412.314 25 412.824 26C413.335 26.9896 414.048 27.75 414.965 28.2812C415.882 28.8021 416.954 29.0625 418.184 29.0625C419.007 29.0625 419.751 28.9479 420.418 28.7187C421.085 28.4792 421.663 28.1302 422.152 27.6719C422.642 27.2135 423.012 26.6458 423.262 25.9687L428.543 26.5625C428.21 27.9583 427.574 29.1771 426.637 30.2188C425.71 31.25 424.522 32.0521 423.074 32.625C421.626 33.1875 419.97 33.4688 418.105 33.4688ZM450.133 18.9375V33H444.477V9H449.883V13.0781H450.164C450.716 11.7344 451.596 10.6667 452.805 9.875C454.023 9.08333 455.529 8.6875 457.32 8.6875C458.977 8.6875 460.419 9.04167 461.648 9.75C462.888 10.4583 463.846 11.4844 464.523 12.8281C465.211 14.1719 465.549 15.8021 465.539 17.7187V33H459.883V18.5937C459.883 16.9896 459.466 15.7344 458.633 14.8281C457.81 13.9219 456.669 13.4687 455.211 13.4687C454.221 13.4687 453.341 13.6875 452.57 14.125C451.81 14.5521 451.211 15.1719 450.773 15.9844C450.346 16.7969 450.133 17.7812 450.133 18.9375ZM481.914 33.4688C479.508 33.4688 477.43 32.9688 475.68 31.9688C473.94 30.9583 472.602 29.5312 471.664 27.6875C470.727 25.8333 470.258 23.651 470.258 21.1406C470.258 18.6719 470.727 16.5052 471.664 14.6406C472.612 12.7656 473.935 11.3073 475.633 10.2656C477.331 9.21354 479.326 8.6875 481.617 8.6875C483.096 8.6875 484.492 8.92708 485.805 9.40625C487.128 9.875 488.294 10.6042 489.305 11.5937C490.326 12.5833 491.128 13.8437 491.711 15.375C492.294 16.8958 492.586 18.7083 492.586 20.8125V22.5469H472.914V18.7344H487.164C487.154 17.651 486.919 16.6875 486.461 15.8437C486.003 14.9896 485.362 14.3177 484.539 13.8281C483.727 13.3385 482.779 13.0937 481.695 13.0937C480.539 13.0937 479.523 13.375 478.648 13.9375C477.773 14.4896 477.091 15.2187 476.602 16.125C476.122 17.0208 475.878 18.0052 475.867 19.0781V22.4062C475.867 23.8021 476.122 25 476.633 26C477.143 26.9896 477.857 27.75 478.773 28.2812C479.69 28.8021 480.763 29.0625 481.992 29.0625C482.815 29.0625 483.56 28.9479 484.227 28.7187C484.893 28.4792 485.471 28.1302 485.961 27.6719C486.451 27.2135 486.82 26.6458 487.07 25.9687L492.352 26.5625C492.018 27.9583 491.383 29.1771 490.445 30.2188C489.518 31.25 488.331 32.0521 486.883 32.625C485.435 33.1875 483.779 33.4688 481.914 33.4688ZM502.195 33L495.414 9H501.18L505.398 25.875H505.617L509.93 9H515.633L519.945 25.7812H520.18L524.336 9H530.117L523.32 33H517.43L512.93 16.7812H512.602L508.102 33H502.195ZM551.887 33.4844C550.366 33.4844 548.996 33.2135 547.777 32.6719C546.569 32.1198 545.611 31.3073 544.902 30.2344C544.204 29.1615 543.855 27.8385 543.855 26.2656C543.855 24.9115 544.105 23.7917 544.605 22.9062C545.105 22.0208 545.788 21.3125 546.652 20.7812C547.517 20.25 548.491 19.849 549.574 19.5781C550.668 19.2969 551.798 19.0937 552.965 18.9687C554.371 18.8229 555.512 18.6927 556.387 18.5781C557.262 18.4531 557.897 18.2656 558.293 18.0156C558.699 17.7552 558.902 17.3542 558.902 16.8125V16.7188C558.902 15.5417 558.553 14.6302 557.855 13.9844C557.158 13.3385 556.152 13.0156 554.84 13.0156C553.454 13.0156 552.355 13.3177 551.543 13.9219C550.741 14.526 550.199 15.2396 549.918 16.0625L544.637 15.3125C545.053 13.8542 545.741 12.6354 546.699 11.6562C547.658 10.6667 548.829 9.92708 550.215 9.4375C551.6 8.9375 553.132 8.6875 554.809 8.6875C555.965 8.6875 557.116 8.82292 558.262 9.09375C559.408 9.36458 560.454 9.8125 561.402 10.4375C562.35 11.0521 563.111 11.8906 563.684 12.9531C564.267 14.0156 564.559 15.3437 564.559 16.9375V33H559.121V29.7031H558.934C558.59 30.3698 558.105 30.9948 557.48 31.5781C556.866 32.151 556.09 32.6146 555.152 32.9687C554.225 33.3125 553.137 33.4844 551.887 33.4844ZM553.355 29.3281C554.491 29.3281 555.475 29.1042 556.309 28.6562C557.142 28.1979 557.783 27.5937 558.23 26.8437C558.689 26.0937 558.918 25.276 558.918 24.3906V21.5625C558.741 21.7083 558.439 21.8437 558.012 21.9687C557.595 22.0937 557.126 22.2031 556.605 22.2969C556.085 22.3906 555.569 22.474 555.059 22.5469C554.548 22.6198 554.105 22.6823 553.73 22.7344C552.887 22.849 552.132 23.0365 551.465 23.2969C550.798 23.5573 550.272 23.9219 549.887 24.3906C549.501 24.849 549.309 25.4427 549.309 26.1719C549.309 27.2135 549.689 28 550.449 28.5312C551.21 29.0625 552.178 29.3281 553.355 29.3281ZM570.246 42V9H575.809V12.9687H576.137C576.428 12.3854 576.84 11.7656 577.371 11.1094C577.902 10.4427 578.621 9.875 579.527 9.40625C580.434 8.92708 581.59 8.6875 582.996 8.6875C584.85 8.6875 586.522 9.16146 588.012 10.1094C589.512 11.0469 590.699 12.4375 591.574 14.2812C592.46 16.1146 592.902 18.3646 592.902 21.0312C592.902 23.6667 592.47 25.9062 591.605 27.75C590.741 29.5937 589.564 31 588.074 31.9688C586.585 32.9375 584.897 33.4219 583.012 33.4219C581.637 33.4219 580.496 33.1927 579.59 32.7344C578.684 32.276 577.954 31.724 577.402 31.0781C576.861 30.4219 576.439 29.8021 576.137 29.2188H575.902V42H570.246ZM575.793 21C575.793 22.5521 576.012 23.9115 576.449 25.0781C576.897 26.2448 577.538 27.1562 578.371 27.8125C579.215 28.4583 580.236 28.7812 581.434 28.7812C582.684 28.7812 583.73 28.4479 584.574 27.7812C585.418 27.1042 586.053 26.1823 586.48 25.0156C586.918 23.8385 587.137 22.5 587.137 21C587.137 19.5104 586.923 18.1875 586.496 17.0312C586.069 15.875 585.434 14.9687 584.59 14.3125C583.746 13.6562 582.694 13.3281 581.434 13.3281C580.225 13.3281 579.199 13.6458 578.355 14.2812C577.512 14.9167 576.871 15.8073 576.434 16.9531C576.007 18.099 575.793 19.4479 575.793 21ZM597.746 42V9H603.309V12.9687H603.637C603.928 12.3854 604.34 11.7656 604.871 11.1094C605.402 10.4427 606.121 9.875 607.027 9.40625C607.934 8.92708 609.09 8.6875 610.496 8.6875C612.35 8.6875 614.022 9.16146 615.512 10.1094C617.012 11.0469 618.199 12.4375 619.074 14.2812C619.96 16.1146 620.402 18.3646 620.402 21.0312C620.402 23.6667 619.97 25.9062 619.105 27.75C618.241 29.5937 617.064 31 615.574 31.9688C614.085 32.9375 612.397 33.4219 610.512 33.4219C609.137 33.4219 607.996 33.1927 607.09 32.7344C606.184 32.276 605.454 31.724 604.902 31.0781C604.361 30.4219 603.939 29.8021 603.637 29.2188H603.402V42H597.746ZM603.293 21C603.293 22.5521 603.512 23.9115 603.949 25.0781C604.397 26.2448 605.038 27.1562 605.871 27.8125C606.715 28.4583 607.736 28.7812 608.934 28.7812C610.184 28.7812 611.23 28.4479 612.074 27.7812C612.918 27.1042 613.553 26.1823 613.98 25.0156C614.418 23.8385 614.637 22.5 614.637 21C614.637 19.5104 614.423 18.1875 613.996 17.0312C613.569 15.875 612.934 14.9687 612.09 14.3125C611.246 13.6562 610.194 13.3281 608.934 13.3281C607.725 13.3281 606.699 13.6458 605.855 14.2812C605.012 14.9167 604.371 15.8073 603.934 16.9531C603.507 18.099 603.293 19.4479 603.293 21Z" fill="white"/>
</svg>
