<svg width="238" height="12" viewBox="0 0 238 12" fill="none" xmlns="http://www.w3.org/2000/svg">
<path d="M8.07955 3H7.02273C6.96023 2.69602 6.85085 2.42898 6.6946 2.19886C6.54119 1.96875 6.35369 1.77557 6.1321 1.61932C5.91335 1.46023 5.67045 1.34091 5.40341 1.26136C5.13636 1.18182 4.85795 1.14205 4.56818 1.14205C4.03977 1.14205 3.56108 1.27557 3.1321 1.54261C2.70597 1.80966 2.36648 2.20312 2.11364 2.72301C1.86364 3.2429 1.73864 3.88068 1.73864 4.63636C1.73864 5.39205 1.86364 6.02983 2.11364 6.54972C2.36648 7.0696 2.70597 7.46307 3.1321 7.73011C3.56108 7.99716 4.03977 8.13068 4.56818 8.13068C4.85795 8.13068 5.13636 8.09091 5.40341 8.01136C5.67045 7.93182 5.91335 7.81392 6.1321 7.65767C6.35369 7.49858 6.54119 7.30398 6.6946 7.07386C6.85085 6.84091 6.96023 6.57386 7.02273 6.27273H8.07955C8 6.71875 7.85511 7.1179 7.64489 7.47017C7.43466 7.82244 7.1733 8.12216 6.8608 8.36932C6.5483 8.61364 6.19744 8.79972 5.80824 8.92756C5.42188 9.0554 5.00852 9.11932 4.56818 9.11932C3.82386 9.11932 3.16193 8.9375 2.58239 8.57386C2.00284 8.21023 1.54688 7.69318 1.21449 7.02273C0.882102 6.35227 0.715909 5.55682 0.715909 4.63636C0.715909 3.71591 0.882102 2.92045 1.21449 2.25C1.54688 1.57955 2.00284 1.0625 2.58239 0.698864C3.16193 0.335227 3.82386 0.153409 4.56818 0.153409C5.00852 0.153409 5.42188 0.217329 5.80824 0.34517C6.19744 0.473011 6.5483 0.660511 6.8608 0.90767C7.1733 1.15199 7.43466 1.45028 7.64489 1.80256C7.85511 2.15199 8 2.55114 8.07955 3ZM12.31 9.13636C11.7191 9.13636 11.2006 8.99574 10.7546 8.71449C10.3114 8.43324 9.96484 8.03977 9.71484 7.53409C9.46768 7.02841 9.34411 6.4375 9.34411 5.76136C9.34411 5.07955 9.46768 4.48437 9.71484 3.97585C9.96484 3.46733 10.3114 3.07244 10.7546 2.79119C11.2006 2.50994 11.7191 2.36932 12.31 2.36932C12.9009 2.36932 13.418 2.50994 13.8612 2.79119C14.3072 3.07244 14.6538 3.46733 14.9009 3.97585C15.1509 4.48437 15.2759 5.07955 15.2759 5.76136C15.2759 6.4375 15.1509 7.02841 14.9009 7.53409C14.6538 8.03977 14.3072 8.43324 13.8612 8.71449C13.418 8.99574 12.9009 9.13636 12.31 9.13636ZM12.31 8.23295C12.7589 8.23295 13.1282 8.1179 13.418 7.88778C13.7077 7.65767 13.9222 7.35511 14.0614 6.98011C14.2006 6.60511 14.2702 6.19886 14.2702 5.76136C14.2702 5.32386 14.2006 4.91619 14.0614 4.53835C13.9222 4.16051 13.7077 3.85511 13.418 3.62216C13.1282 3.3892 12.7589 3.27273 12.31 3.27273C11.8612 3.27273 11.4918 3.3892 11.2021 3.62216C10.9123 3.85511 10.6978 4.16051 10.5586 4.53835C10.4194 4.91619 10.3498 5.32386 10.3498 5.76136C10.3498 6.19886 10.4194 6.60511 10.5586 6.98011C10.6978 7.35511 10.9123 7.65767 11.2021 7.88778C11.4918 8.1179 11.8612 8.23295 12.31 8.23295ZM16.8111 11.4545V2.45455H17.7827V3.49432H17.902C17.9759 3.38068 18.0781 3.2358 18.2088 3.05966C18.3423 2.88068 18.5327 2.72159 18.7798 2.58239C19.0298 2.44034 19.3679 2.36932 19.794 2.36932C20.3452 2.36932 20.831 2.5071 21.2514 2.78267C21.6719 3.05824 22 3.44886 22.2358 3.95455C22.4716 4.46023 22.5895 5.05682 22.5895 5.74432C22.5895 6.4375 22.4716 7.03835 22.2358 7.54688C22 8.05256 21.6733 8.4446 21.2557 8.72301C20.8381 8.99858 20.3565 9.13636 19.8111 9.13636C19.3906 9.13636 19.054 9.06676 18.8011 8.92756C18.5483 8.78551 18.3537 8.625 18.2173 8.44602C18.081 8.2642 17.9759 8.11364 17.902 7.99432H17.8168V11.4545H16.8111ZM17.7997 5.72727C17.7997 6.22159 17.8722 6.65767 18.017 7.03551C18.1619 7.41051 18.3736 7.70455 18.652 7.91761C18.9304 8.12784 19.2713 8.23295 19.6747 8.23295C20.0952 8.23295 20.446 8.12216 20.7273 7.90057C21.0114 7.67614 21.2244 7.375 21.3665 6.99716C21.5114 6.61648 21.5838 6.19318 21.5838 5.72727C21.5838 5.26705 21.5128 4.85227 21.3707 4.48295C21.2315 4.1108 21.0199 3.81676 20.7358 3.60085C20.4545 3.3821 20.1009 3.27273 19.6747 3.27273C19.2656 3.27273 18.9219 3.37642 18.6435 3.58381C18.3651 3.78835 18.1548 4.07528 18.0128 4.4446C17.8707 4.81108 17.7997 5.23864 17.7997 5.72727ZM24.5369 11.4545C24.3665 11.4545 24.2145 11.4403 24.081 11.4119C23.9474 11.3864 23.8551 11.3608 23.804 11.3352L24.0597 10.4489C24.304 10.5114 24.5199 10.5341 24.7074 10.517C24.8949 10.5 25.0611 10.4162 25.206 10.2656C25.3537 10.1179 25.4886 9.87784 25.6108 9.54545L25.7983 9.03409L23.3778 2.45455H24.4688L26.2756 7.67045H26.3438L28.1506 2.45455H29.2415L26.4631 9.95455C26.3381 10.2926 26.1832 10.5724 25.9986 10.794C25.8139 11.0185 25.5994 11.1847 25.3551 11.2926C25.1136 11.4006 24.8409 11.4545 24.5369 11.4545ZM30.5689 9V2.45455H31.5405V3.44318H31.6087C31.728 3.11932 31.9439 2.85653 32.2564 2.65483C32.5689 2.45312 32.9212 2.35227 33.3132 2.35227C33.3871 2.35227 33.4794 2.35369 33.5902 2.35653C33.701 2.35937 33.7848 2.36364 33.8416 2.36932V3.39205C33.8075 3.38352 33.7294 3.37074 33.6072 3.35369C33.4879 3.33381 33.3615 3.32386 33.228 3.32386C32.9098 3.32386 32.6257 3.39062 32.3757 3.52415C32.1286 3.65483 31.9325 3.83665 31.7876 4.0696C31.6456 4.29972 31.5746 4.5625 31.5746 4.85795V9H30.5689ZM35.0337 9V2.45455H36.0394V9H35.0337ZM35.5451 1.36364C35.3491 1.36364 35.18 1.29688 35.038 1.16335C34.8988 1.02983 34.8292 0.869318 34.8292 0.681818C34.8292 0.494318 34.8988 0.333807 35.038 0.200284C35.18 0.0667613 35.3491 0 35.5451 0C35.7411 0 35.9087 0.0667613 36.0479 0.200284C36.19 0.333807 36.261 0.494318 36.261 0.681818C36.261 0.869318 36.19 1.02983 36.0479 1.16335C35.9087 1.29688 35.7411 1.36364 35.5451 1.36364ZM40.5234 11.5909C40.0376 11.5909 39.62 11.5284 39.2706 11.4034C38.9212 11.2812 38.63 11.1193 38.397 10.9176C38.1669 10.7188 37.9837 10.5057 37.8473 10.2784L38.6484 9.71591C38.7393 9.83523 38.8544 9.97159 38.9936 10.125C39.1328 10.2812 39.3232 10.4162 39.5646 10.5298C39.8089 10.6463 40.1286 10.7045 40.5234 10.7045C41.0518 10.7045 41.4879 10.5767 41.8317 10.321C42.1754 10.0653 42.3473 9.66477 42.3473 9.11932V7.78977H42.2621C42.1882 7.90909 42.0831 8.05682 41.9467 8.23295C41.8132 8.40625 41.62 8.56108 41.3672 8.69744C41.1172 8.83097 40.7791 8.89773 40.353 8.89773C39.8246 8.89773 39.3501 8.77273 38.9297 8.52273C38.5121 8.27273 38.1811 7.90909 37.9368 7.43182C37.6953 6.95455 37.5746 6.375 37.5746 5.69318C37.5746 5.02273 37.6925 4.43892 37.9283 3.94176C38.1641 3.44176 38.4922 3.0554 38.9126 2.78267C39.3331 2.5071 39.8189 2.36932 40.37 2.36932C40.7962 2.36932 41.1342 2.44034 41.3842 2.58239C41.6371 2.72159 41.8303 2.88068 41.9638 3.05966C42.1001 3.2358 42.2053 3.38068 42.2791 3.49432H42.3814V2.45455H43.353V9.1875C43.353 9.75 43.2251 10.2074 42.9695 10.5597C42.7166 10.9148 42.3757 11.1747 41.9467 11.3395C41.5206 11.5071 41.0462 11.5909 40.5234 11.5909ZM40.4893 7.99432C40.8928 7.99432 41.2337 7.90199 41.5121 7.71733C41.7905 7.53267 42.0021 7.26705 42.147 6.92045C42.2919 6.57386 42.3643 6.15909 42.3643 5.67614C42.3643 5.20455 42.2933 4.78835 42.1513 4.42756C42.0092 4.06676 41.799 3.78409 41.5206 3.57955C41.2422 3.375 40.8984 3.27273 40.4893 3.27273C40.0632 3.27273 39.7081 3.38068 39.424 3.59659C39.1428 3.8125 38.9311 4.10227 38.7891 4.46591C38.6499 4.82955 38.5803 5.23295 38.5803 5.67614C38.5803 6.13068 38.6513 6.53267 38.7933 6.8821C38.9382 7.22869 39.1513 7.50142 39.4325 7.70028C39.7166 7.89631 40.0689 7.99432 40.4893 7.99432ZM46.1996 5.0625V9H45.1939V0.272727H46.1996V3.47727H46.2848C46.4382 3.1392 46.6683 2.87074 46.9751 2.67188C47.2848 2.47017 47.6967 2.36932 48.2109 2.36932C48.657 2.36932 49.0476 2.45881 49.3828 2.63778C49.718 2.81392 49.978 3.08523 50.1626 3.4517C50.3501 3.81534 50.4439 4.27841 50.4439 4.84091V9H49.4382V4.90909C49.4382 4.3892 49.3033 3.98722 49.0334 3.70312C48.7663 3.41619 48.3956 3.27273 47.9212 3.27273C47.5916 3.27273 47.2962 3.34233 47.0348 3.48153C46.7763 3.62074 46.5717 3.82386 46.4212 4.09091C46.2734 4.35795 46.1996 4.68182 46.1996 5.0625ZM55.1303 2.45455V3.30682H51.7383V2.45455H55.1303ZM52.7269 0.886364H53.7326V7.125C53.7326 7.40909 53.7738 7.62216 53.8562 7.7642C53.9414 7.90341 54.0494 7.99716 54.18 8.04545C54.3136 8.09091 54.4542 8.11364 54.6019 8.11364C54.7127 8.11364 54.8036 8.10795 54.8746 8.09659C54.9457 8.08239 55.0025 8.07102 55.0451 8.0625L55.2496 8.96591C55.1815 8.99148 55.0863 9.01705 54.9641 9.04261C54.842 9.07102 54.6871 9.08523 54.4996 9.08523C54.2156 9.08523 53.9371 9.02415 53.6644 8.90199C53.3945 8.77983 53.1701 8.59375 52.9911 8.34375C52.815 8.09375 52.7269 7.77841 52.7269 7.39773V0.886364ZM62.0977 4.63636C62.0977 4.17045 62.2113 3.74574 62.4386 3.36222C62.6658 2.97869 62.9712 2.6733 63.3548 2.44602C63.7383 2.21875 64.163 2.10511 64.6289 2.10511C65.0323 2.10511 65.4045 2.19176 65.7454 2.36506C66.0891 2.53835 66.3732 2.77557 66.5977 3.0767C66.8221 3.375 66.9613 3.71307 67.0153 4.09091H65.984C65.9272 3.7983 65.7695 3.55966 65.511 3.375C65.2525 3.1875 64.9585 3.09375 64.6289 3.09375C64.3448 3.09375 64.0863 3.16335 63.8533 3.30256C63.6204 3.44176 63.4343 3.62784 63.2951 3.8608C63.1559 4.09375 63.0863 4.35227 63.0863 4.63636C63.0863 4.92045 63.1559 5.17898 63.2951 5.41193C63.4343 5.64489 63.6204 5.83097 63.8533 5.97017C64.0863 6.10937 64.3448 6.17898 64.6289 6.17898C64.9585 6.17898 65.2369 6.08665 65.4641 5.90199C65.6942 5.71449 65.8391 5.47443 65.8988 5.18182H66.93C66.8761 5.55966 66.744 5.89915 66.5337 6.20028C66.3235 6.49858 66.0536 6.73437 65.7241 6.90767C65.3974 7.08097 65.0323 7.16761 64.6289 7.16761C64.163 7.16761 63.7383 7.05398 63.3548 6.8267C62.9712 6.59943 62.6658 6.29403 62.4386 5.91051C62.2113 5.52699 62.0977 5.10227 62.0977 4.63636ZM64.5863 9.13636C63.967 9.13636 63.3846 9.01989 62.8391 8.78693C62.2965 8.55398 61.8178 8.23153 61.4031 7.8196C60.9911 7.40483 60.6673 6.92614 60.4315 6.38352C60.1985 5.84091 60.0835 5.25852 60.0863 4.63636C60.0891 4.0142 60.207 3.43182 60.44 2.8892C60.6758 2.34659 60.9996 1.86932 61.4116 1.45739C61.8235 1.04261 62.3008 0.71875 62.8434 0.485795C63.386 0.252841 63.967 0.136364 64.5863 0.136364C65.2085 0.136364 65.7908 0.252841 66.3335 0.485795C66.8789 0.71875 67.3562 1.04261 67.7653 1.45739C68.1772 1.86932 68.4996 2.34659 68.7326 2.8892C68.9656 3.43182 69.0835 4.0142 69.0863 4.63636C69.0891 5.25852 68.9741 5.84091 68.7411 6.38352C68.5082 6.92614 68.1857 7.40483 67.7738 7.8196C67.3619 8.23153 66.8832 8.55398 66.3377 8.78693C65.7923 9.01989 65.2085 9.13636 64.5863 9.13636ZM64.5863 8.14773C65.0721 8.14773 65.5281 8.05682 65.9542 7.875C66.3803 7.69318 66.7539 7.44176 67.0749 7.12074C67.396 6.79972 67.6474 6.42756 67.8292 6.00426C68.011 5.57812 68.1005 5.12358 68.0977 4.64062C68.0948 4.15483 68.0025 3.69886 67.8207 3.27273C67.6388 2.84659 67.3874 2.47301 67.0664 2.15199C66.7454 1.83097 66.3732 1.57955 65.9499 1.39773C65.5266 1.21591 65.0721 1.125 64.5863 1.125C64.1033 1.125 63.6502 1.21591 63.2269 1.39773C62.8036 1.57955 62.4315 1.83239 62.1104 2.15625C61.7894 2.47727 61.5366 2.85085 61.3519 3.27699C61.1701 3.70028 61.0778 4.15483 61.0749 4.64062C61.0721 5.12074 61.1616 5.57386 61.3434 6C61.5252 6.4233 61.7766 6.79545 62.0977 7.11648C62.4215 7.4375 62.7951 7.69034 63.2184 7.875C63.6445 8.05682 64.1005 8.14773 64.5863 8.14773ZM74.5099 9V0.272727H79.777V1.21023H75.5668V4.15909H79.5043V5.09659H75.5668V8.0625H79.8452V9H74.5099ZM83.4716 9.15341C83.0568 9.15341 82.6804 9.07528 82.3423 8.91903C82.0043 8.75994 81.7358 8.53125 81.5369 8.23295C81.3381 7.93182 81.2386 7.56818 81.2386 7.14205C81.2386 6.76705 81.3125 6.46307 81.4602 6.23011C81.608 5.99432 81.8054 5.80966 82.0526 5.67614C82.2997 5.54261 82.5724 5.44318 82.8707 5.37784C83.1719 5.30966 83.4744 5.25568 83.7784 5.21591C84.1761 5.16477 84.4986 5.12642 84.7457 5.10085C84.9957 5.07244 85.1776 5.02557 85.2912 4.96023C85.4077 4.89489 85.4659 4.78125 85.4659 4.61932V4.58523C85.4659 4.16477 85.3509 3.83807 85.1207 3.60511C84.8935 3.37216 84.5483 3.25568 84.0852 3.25568C83.6051 3.25568 83.2287 3.3608 82.956 3.57102C82.6832 3.78125 82.4915 4.00568 82.3807 4.24432L81.4261 3.90341C81.5966 3.50568 81.8239 3.19602 82.108 2.97443C82.3949 2.75 82.7074 2.59375 83.0455 2.50568C83.3864 2.41477 83.7216 2.36932 84.0511 2.36932C84.2614 2.36932 84.5028 2.39489 84.7756 2.44602C85.0511 2.49432 85.3168 2.59517 85.5724 2.74858C85.831 2.90199 86.0455 3.13352 86.2159 3.44318C86.3864 3.75284 86.4716 4.16761 86.4716 4.6875V9H85.4659V8.11364H85.4148C85.3466 8.25568 85.233 8.40767 85.0739 8.5696C84.9148 8.73153 84.7031 8.86932 84.4389 8.98295C84.1747 9.09659 83.8523 9.15341 83.4716 9.15341ZM83.625 8.25C84.0227 8.25 84.358 8.17188 84.6307 8.01562C84.9063 7.85938 85.1136 7.65767 85.2528 7.41051C85.3949 7.16335 85.4659 6.90341 85.4659 6.63068V5.71023C85.4233 5.76136 85.3295 5.80824 85.1847 5.85085C85.0426 5.89062 84.8778 5.92614 84.6903 5.95739C84.5057 5.9858 84.3253 6.01136 84.1491 6.03409C83.9759 6.05398 83.8352 6.07102 83.7273 6.08523C83.4659 6.11932 83.2216 6.17472 82.9943 6.25142C82.7699 6.32528 82.5881 6.4375 82.4489 6.58807C82.3125 6.7358 82.2443 6.9375 82.2443 7.19318C82.2443 7.54261 82.3736 7.80682 82.6321 7.9858C82.8935 8.16193 83.2244 8.25 83.625 8.25ZM91.1538 2.45455V3.30682H87.7617V2.45455H91.1538ZM88.7504 0.886364H89.756V7.125C89.756 7.40909 89.7972 7.62216 89.8796 7.7642C89.9648 7.90341 90.0728 7.99716 90.2035 8.04545C90.337 8.09091 90.4776 8.11364 90.6254 8.11364C90.7362 8.11364 90.8271 8.10795 90.8981 8.09659C90.9691 8.08239 91.0259 8.07102 91.0685 8.0625L91.2731 8.96591C91.2049 8.99148 91.1097 9.01705 90.9876 9.04261C90.8654 9.07102 90.7106 9.08523 90.5231 9.08523C90.239 9.08523 89.9606 9.02415 89.6879 8.90199C89.418 8.77983 89.1935 8.59375 89.0146 8.34375C88.8384 8.09375 88.7504 7.77841 88.7504 7.39773V0.886364ZM97.5756 2.45455C97.5245 2.02273 97.3171 1.6875 96.9535 1.44886C96.5898 1.21023 96.1438 1.09091 95.6154 1.09091C95.229 1.09091 94.891 1.15341 94.6012 1.27841C94.3143 1.40341 94.0898 1.57528 93.9279 1.79403C93.7688 2.01278 93.6893 2.26136 93.6893 2.53977C93.6893 2.77273 93.7447 2.97301 93.8555 3.14062C93.9691 3.3054 94.114 3.44318 94.2901 3.55398C94.4663 3.66193 94.6509 3.75142 94.8441 3.82244C95.0373 3.89062 95.2148 3.94602 95.3768 3.98864L96.2631 4.22727C96.4904 4.28693 96.7433 4.36932 97.0217 4.47443C97.3029 4.57955 97.5714 4.72301 97.8271 4.90483C98.0856 5.08381 98.2987 5.31392 98.4663 5.59517C98.6339 5.87642 98.7177 6.22159 98.7177 6.63068C98.7177 7.10227 98.5941 7.52841 98.3469 7.90909C98.1026 8.28977 97.7447 8.59233 97.2731 8.81676C96.8043 9.04119 96.2347 9.15341 95.5643 9.15341C94.9393 9.15341 94.3981 9.05256 93.9407 8.85085C93.4862 8.64915 93.1282 8.3679 92.8668 8.0071C92.6083 7.64631 92.462 7.22727 92.4279 6.75H93.5188C93.5472 7.07955 93.658 7.35227 93.8512 7.56818C94.0472 7.78125 94.2944 7.94034 94.5927 8.04545C94.8938 8.14773 95.2177 8.19886 95.5643 8.19886C95.9677 8.19886 96.3299 8.13352 96.6509 8.00284C96.9719 7.86932 97.2262 7.68466 97.4137 7.44886C97.6012 7.21023 97.695 6.93182 97.695 6.61364C97.695 6.32386 97.614 6.08807 97.4521 5.90625C97.2901 5.72443 97.0771 5.5767 96.8129 5.46307C96.5487 5.34943 96.2631 5.25 95.9563 5.16477L94.8825 4.85795C94.2006 4.66193 93.6609 4.3821 93.2631 4.01847C92.8654 3.65483 92.6665 3.17898 92.6665 2.59091C92.6665 2.10227 92.7987 1.67614 93.0629 1.3125C93.3299 0.946023 93.6879 0.661932 94.1367 0.460227C94.5884 0.255682 95.0927 0.153409 95.6495 0.153409C96.212 0.153409 96.712 0.254261 97.1495 0.455966C97.587 0.654829 97.9336 0.927556 98.1893 1.27415C98.4478 1.62074 98.5842 2.0142 98.5984 2.45455H97.5756ZM100.319 9V2.45455H101.29V3.47727H101.376C101.512 3.12784 101.732 2.85653 102.036 2.66335C102.34 2.46733 102.705 2.36932 103.131 2.36932C103.563 2.36932 103.923 2.46733 104.21 2.66335C104.499 2.85653 104.725 3.12784 104.887 3.47727H104.955C105.123 3.1392 105.374 2.87074 105.71 2.67188C106.045 2.47017 106.447 2.36932 106.915 2.36932C107.501 2.36932 107.979 2.55256 108.352 2.91903C108.724 3.28267 108.91 3.84943 108.91 4.61932V9H107.904V4.61932C107.904 4.13636 107.772 3.79119 107.508 3.58381C107.244 3.37642 106.933 3.27273 106.575 3.27273C106.114 3.27273 105.758 3.41193 105.505 3.69034C105.252 3.96591 105.126 4.31534 105.126 4.73864V9H104.103V4.51705C104.103 4.14489 103.982 3.84517 103.741 3.6179C103.499 3.38778 103.188 3.27273 102.808 3.27273C102.546 3.27273 102.302 3.34233 102.075 3.48153C101.85 3.62074 101.668 3.81392 101.529 4.06108C101.393 4.3054 101.325 4.58807 101.325 4.90909V9H100.319ZM112.675 9.15341C112.26 9.15341 111.884 9.07528 111.545 8.91903C111.207 8.75994 110.939 8.53125 110.74 8.23295C110.541 7.93182 110.442 7.56818 110.442 7.14205C110.442 6.76705 110.516 6.46307 110.663 6.23011C110.811 5.99432 111.009 5.80966 111.256 5.67614C111.503 5.54261 111.776 5.44318 112.074 5.37784C112.375 5.30966 112.678 5.25568 112.982 5.21591C113.379 5.16477 113.702 5.12642 113.949 5.10085C114.199 5.07244 114.381 5.02557 114.494 4.96023C114.611 4.89489 114.669 4.78125 114.669 4.61932V4.58523C114.669 4.16477 114.554 3.83807 114.324 3.60511C114.097 3.37216 113.751 3.25568 113.288 3.25568C112.808 3.25568 112.432 3.3608 112.159 3.57102C111.886 3.78125 111.695 4.00568 111.584 4.24432L110.629 3.90341C110.8 3.50568 111.027 3.19602 111.311 2.97443C111.598 2.75 111.911 2.59375 112.249 2.50568C112.589 2.41477 112.925 2.36932 113.254 2.36932C113.464 2.36932 113.706 2.39489 113.979 2.44602C114.254 2.49432 114.52 2.59517 114.776 2.74858C115.034 2.90199 115.249 3.13352 115.419 3.44318C115.589 3.75284 115.675 4.16761 115.675 4.6875V9H114.669V8.11364H114.618C114.55 8.25568 114.436 8.40767 114.277 8.5696C114.118 8.73153 113.906 8.86932 113.642 8.98295C113.378 9.09659 113.055 9.15341 112.675 9.15341ZM112.828 8.25C113.226 8.25 113.561 8.17188 113.834 8.01562C114.109 7.85938 114.317 7.65767 114.456 7.41051C114.598 7.16335 114.669 6.90341 114.669 6.63068V5.71023C114.626 5.76136 114.533 5.80824 114.388 5.85085C114.246 5.89062 114.081 5.92614 113.893 5.95739C113.709 5.9858 113.528 6.01136 113.352 6.03409C113.179 6.05398 113.038 6.07102 112.93 6.08523C112.669 6.11932 112.425 6.17472 112.197 6.25142C111.973 6.32528 111.791 6.4375 111.652 6.58807C111.516 6.7358 111.447 6.9375 111.447 7.19318C111.447 7.54261 111.577 7.80682 111.835 7.9858C112.097 8.16193 112.428 8.25 112.828 8.25ZM117.51 9V2.45455H118.482V3.44318H118.55C118.669 3.11932 118.885 2.85653 119.198 2.65483C119.51 2.45312 119.863 2.35227 120.255 2.35227C120.328 2.35227 120.421 2.35369 120.532 2.35653C120.642 2.35937 120.726 2.36364 120.783 2.36932V3.39205C120.749 3.38352 120.671 3.37074 120.549 3.35369C120.429 3.33381 120.303 3.32386 120.169 3.32386C119.851 3.32386 119.567 3.39062 119.317 3.52415C119.07 3.65483 118.874 3.83665 118.729 4.0696C118.587 4.29972 118.516 4.5625 118.516 4.85795V9H117.51ZM125.232 2.45455V3.30682H121.84V2.45455H125.232ZM122.828 0.886364H123.834V7.125C123.834 7.40909 123.875 7.62216 123.958 7.7642C124.043 7.90341 124.151 7.99716 124.282 8.04545C124.415 8.09091 124.556 8.11364 124.703 8.11364C124.814 8.11364 124.905 8.10795 124.976 8.09659C125.047 8.08239 125.104 8.07102 125.147 8.0625L125.351 8.96591C125.283 8.99148 125.188 9.01705 125.066 9.04261C124.944 9.07102 124.789 9.08523 124.601 9.08523C124.317 9.08523 124.039 9.02415 123.766 8.90199C123.496 8.77983 123.272 8.59375 123.093 8.34375C122.917 8.09375 122.828 7.77841 122.828 7.39773V0.886364ZM127.478 9.06818C127.267 9.06818 127.087 8.9929 126.936 8.84233C126.786 8.69176 126.711 8.51136 126.711 8.30114C126.711 8.09091 126.786 7.91051 126.936 7.75994C127.087 7.60937 127.267 7.53409 127.478 7.53409C127.688 7.53409 127.868 7.60937 128.019 7.75994C128.169 7.91051 128.245 8.09091 128.245 8.30114C128.245 8.44034 128.209 8.56818 128.138 8.68466C128.07 8.80114 127.978 8.89489 127.861 8.96591C127.748 9.03409 127.62 9.06818 127.478 9.06818ZM133.919 9H132.811L136.015 0.272727H137.106L140.311 9H139.203L136.595 1.65341H136.527L133.919 9ZM134.328 5.59091H138.794V6.52841H134.328V5.59091ZM142.539 0.272727V9H141.534V0.272727H142.539ZM145.387 0.272727V9H144.381V0.272727H145.387ZM150.604 9V2.45455H151.576V3.44318H151.644C151.763 3.11932 151.979 2.85653 152.292 2.65483C152.604 2.45312 152.956 2.35227 153.348 2.35227C153.422 2.35227 153.515 2.35369 153.625 2.35653C153.736 2.35937 153.82 2.36364 153.877 2.36932V3.39205C153.843 3.38352 153.765 3.37074 153.642 3.35369C153.523 3.33381 153.397 3.32386 153.263 3.32386C152.945 3.32386 152.661 3.39062 152.411 3.52415C152.164 3.65483 151.968 3.83665 151.823 4.0696C151.681 4.29972 151.61 4.5625 151.61 4.85795V9H150.604ZM155.069 9V2.45455H156.075V9H155.069ZM155.58 1.36364C155.384 1.36364 155.215 1.29688 155.073 1.16335C154.934 1.02983 154.864 0.869318 154.864 0.681818C154.864 0.494318 154.934 0.333807 155.073 0.200284C155.215 0.0667613 155.384 0 155.58 0C155.776 0 155.944 0.0667613 156.083 0.200284C156.225 0.333807 156.296 0.494318 156.296 0.681818C156.296 0.869318 156.225 1.02983 156.083 1.16335C155.944 1.29688 155.776 1.36364 155.58 1.36364ZM160.559 11.5909C160.073 11.5909 159.655 11.5284 159.306 11.4034C158.956 11.2812 158.665 11.1193 158.432 10.9176C158.202 10.7188 158.019 10.5057 157.882 10.2784L158.684 9.71591C158.775 9.83523 158.89 9.97159 159.029 10.125C159.168 10.2812 159.358 10.4162 159.6 10.5298C159.844 10.6463 160.164 10.7045 160.559 10.7045C161.087 10.7045 161.523 10.5767 161.867 10.321C162.211 10.0653 162.382 9.66477 162.382 9.11932V7.78977H162.297C162.223 7.90909 162.118 8.05682 161.982 8.23295C161.848 8.40625 161.655 8.56108 161.402 8.69744C161.152 8.83097 160.814 8.89773 160.388 8.89773C159.86 8.89773 159.385 8.77273 158.965 8.52273C158.547 8.27273 158.216 7.90909 157.972 7.43182C157.73 6.95455 157.61 6.375 157.61 5.69318C157.61 5.02273 157.728 4.43892 157.963 3.94176C158.199 3.44176 158.527 3.0554 158.948 2.78267C159.368 2.5071 159.854 2.36932 160.405 2.36932C160.831 2.36932 161.169 2.44034 161.419 2.58239C161.672 2.72159 161.865 2.88068 161.999 3.05966C162.135 3.2358 162.24 3.38068 162.314 3.49432H162.417V2.45455H163.388V9.1875C163.388 9.75 163.26 10.2074 163.005 10.5597C162.752 10.9148 162.411 11.1747 161.982 11.3395C161.556 11.5071 161.081 11.5909 160.559 11.5909ZM160.525 7.99432C160.928 7.99432 161.269 7.90199 161.547 7.71733C161.826 7.53267 162.037 7.26705 162.182 6.92045C162.327 6.57386 162.4 6.15909 162.4 5.67614C162.4 5.20455 162.328 4.78835 162.186 4.42756C162.044 4.06676 161.834 3.78409 161.556 3.57955C161.277 3.375 160.934 3.27273 160.525 3.27273C160.098 3.27273 159.743 3.38068 159.459 3.59659C159.178 3.8125 158.966 4.10227 158.824 4.46591C158.685 4.82955 158.615 5.23295 158.615 5.67614C158.615 6.13068 158.686 6.53267 158.828 6.8821C158.973 7.22869 159.186 7.50142 159.468 7.70028C159.752 7.89631 160.104 7.99432 160.525 7.99432ZM166.235 5.0625V9H165.229V0.272727H166.235V3.47727H166.32C166.473 3.1392 166.703 2.87074 167.01 2.67188C167.32 2.47017 167.732 2.36932 168.246 2.36932C168.692 2.36932 169.083 2.45881 169.418 2.63778C169.753 2.81392 170.013 3.08523 170.198 3.4517C170.385 3.81534 170.479 4.27841 170.479 4.84091V9H169.473V4.90909C169.473 4.3892 169.338 3.98722 169.069 3.70312C168.801 3.41619 168.431 3.27273 167.956 3.27273C167.627 3.27273 167.331 3.34233 167.07 3.48153C166.811 3.62074 166.607 3.82386 166.456 4.09091C166.309 4.35795 166.235 4.68182 166.235 5.0625ZM175.165 2.45455V3.30682H171.773V2.45455H175.165ZM172.762 0.886364H173.768V7.125C173.768 7.40909 173.809 7.62216 173.891 7.7642C173.977 7.90341 174.085 7.99716 174.215 8.04545C174.349 8.09091 174.489 8.11364 174.637 8.11364C174.748 8.11364 174.839 8.10795 174.91 8.09659C174.981 8.08239 175.038 8.07102 175.08 8.0625L175.285 8.96591C175.217 8.99148 175.121 9.01705 174.999 9.04261C174.877 9.07102 174.722 9.08523 174.535 9.08523C174.251 9.08523 173.972 9.02415 173.7 8.90199C173.43 8.77983 173.205 8.59375 173.026 8.34375C172.85 8.09375 172.762 7.77841 172.762 7.39773V0.886364ZM181.197 3.92045L180.294 4.17614C180.237 4.02557 180.153 3.87926 180.043 3.73722C179.935 3.59233 179.787 3.47301 179.599 3.37926C179.412 3.28551 179.172 3.23864 178.879 3.23864C178.479 3.23864 178.145 3.33097 177.878 3.51562C177.614 3.69744 177.482 3.92898 177.482 4.21023C177.482 4.46023 177.572 4.65767 177.754 4.80256C177.936 4.94744 178.22 5.06818 178.607 5.16477L179.578 5.40341C180.163 5.54545 180.599 5.76278 180.886 6.0554C181.173 6.34517 181.317 6.71875 181.317 7.17614C181.317 7.55114 181.209 7.88636 180.993 8.18182C180.78 8.47727 180.482 8.71023 180.098 8.88068C179.714 9.05114 179.268 9.13636 178.76 9.13636C178.092 9.13636 177.54 8.99148 177.102 8.7017C176.665 8.41193 176.388 7.98864 176.271 7.43182L177.226 7.19318C177.317 7.54545 177.489 7.80966 177.741 7.9858C177.997 8.16193 178.331 8.25 178.743 8.25C179.212 8.25 179.584 8.15057 179.859 7.9517C180.138 7.75 180.277 7.50852 180.277 7.22727C180.277 7 180.197 6.80966 180.038 6.65625C179.879 6.5 179.635 6.38352 179.305 6.30682L178.214 6.05114C177.615 5.90909 177.175 5.68892 176.893 5.39062C176.615 5.08949 176.476 4.71307 176.476 4.26136C176.476 3.89205 176.58 3.56534 176.787 3.28125C176.997 2.99716 177.283 2.77415 177.643 2.61222C178.007 2.45028 178.419 2.36932 178.879 2.36932C179.527 2.36932 180.036 2.51136 180.405 2.79545C180.777 3.07955 181.041 3.45455 181.197 3.92045ZM186.206 9V2.45455H187.177V3.44318H187.245C187.365 3.11932 187.581 2.85653 187.893 2.65483C188.206 2.45312 188.558 2.35227 188.95 2.35227C189.024 2.35227 189.116 2.35369 189.227 2.35653C189.338 2.35937 189.422 2.36364 189.478 2.36932V3.39205C189.444 3.38352 189.366 3.37074 189.244 3.35369C189.125 3.33381 188.998 3.32386 188.865 3.32386C188.547 3.32386 188.262 3.39062 188.012 3.52415C187.765 3.65483 187.569 3.83665 187.424 4.0696C187.282 4.29972 187.211 4.5625 187.211 4.85795V9H186.206ZM193.216 9.13636C192.585 9.13636 192.041 8.99716 191.583 8.71875C191.129 8.4375 190.778 8.04545 190.531 7.54261C190.287 7.03693 190.164 6.44886 190.164 5.77841C190.164 5.10795 190.287 4.51705 190.531 4.00568C190.778 3.49148 191.122 3.09091 191.562 2.80398C192.005 2.5142 192.522 2.36932 193.113 2.36932C193.454 2.36932 193.791 2.42614 194.123 2.53977C194.456 2.65341 194.758 2.83807 195.031 3.09375C195.304 3.34659 195.521 3.68182 195.683 4.09943C195.845 4.51705 195.926 5.03125 195.926 5.64205V6.06818H190.88V5.19886H194.903C194.903 4.82955 194.829 4.5 194.681 4.21023C194.537 3.92045 194.329 3.69176 194.059 3.52415C193.792 3.35653 193.477 3.27273 193.113 3.27273C192.713 3.27273 192.366 3.37216 192.074 3.57102C191.784 3.76705 191.561 4.02273 191.404 4.33807C191.248 4.65341 191.17 4.99148 191.17 5.35227V5.93182C191.17 6.42614 191.255 6.84517 191.426 7.18892C191.599 7.52983 191.839 7.78977 192.146 7.96875C192.453 8.14489 192.809 8.23295 193.216 8.23295C193.48 8.23295 193.718 8.19602 193.931 8.12216C194.147 8.04545 194.333 7.93182 194.49 7.78125C194.646 7.62784 194.767 7.4375 194.852 7.21023L195.824 7.48295C195.721 7.8125 195.549 8.10227 195.308 8.35227C195.066 8.59943 194.768 8.79261 194.413 8.93182C194.058 9.06818 193.659 9.13636 193.216 9.13636ZM202.092 3.92045L201.189 4.17614C201.132 4.02557 201.048 3.87926 200.937 3.73722C200.829 3.59233 200.681 3.47301 200.494 3.37926C200.306 3.28551 200.066 3.23864 199.774 3.23864C199.373 3.23864 199.039 3.33097 198.772 3.51562C198.508 3.69744 198.376 3.92898 198.376 4.21023C198.376 4.46023 198.467 4.65767 198.649 4.80256C198.831 4.94744 199.115 5.06818 199.501 5.16477L200.473 5.40341C201.058 5.54545 201.494 5.76278 201.781 6.0554C202.068 6.34517 202.211 6.71875 202.211 7.17614C202.211 7.55114 202.103 7.88636 201.887 8.18182C201.674 8.47727 201.376 8.71023 200.993 8.88068C200.609 9.05114 200.163 9.13636 199.654 9.13636C198.987 9.13636 198.434 8.99148 197.997 8.7017C197.559 8.41193 197.282 7.98864 197.166 7.43182L198.12 7.19318C198.211 7.54545 198.383 7.80966 198.636 7.9858C198.892 8.16193 199.225 8.25 199.637 8.25C200.106 8.25 200.478 8.15057 200.754 7.9517C201.032 7.75 201.172 7.50852 201.172 7.22727C201.172 7 201.092 6.80966 200.933 6.65625C200.774 6.5 200.529 6.38352 200.2 6.30682L199.109 6.05114C198.51 5.90909 198.069 5.68892 197.788 5.39062C197.51 5.08949 197.37 4.71307 197.37 4.26136C197.37 3.89205 197.474 3.56534 197.681 3.28125C197.892 2.99716 198.177 2.77415 198.538 2.61222C198.902 2.45028 199.314 2.36932 199.774 2.36932C200.422 2.36932 200.93 2.51136 201.299 2.79545C201.672 3.07955 201.936 3.45455 202.092 3.92045ZM206.469 9.13636C205.839 9.13636 205.295 8.99716 204.837 8.71875C204.383 8.4375 204.032 8.04545 203.785 7.54261C203.54 7.03693 203.418 6.44886 203.418 5.77841C203.418 5.10795 203.54 4.51705 203.785 4.00568C204.032 3.49148 204.376 3.09091 204.816 2.80398C205.259 2.5142 205.776 2.36932 206.367 2.36932C206.708 2.36932 207.045 2.42614 207.377 2.53977C207.71 2.65341 208.012 2.83807 208.285 3.09375C208.558 3.34659 208.775 3.68182 208.937 4.09943C209.099 4.51705 209.18 5.03125 209.18 5.64205V6.06818H204.134V5.19886H208.157C208.157 4.82955 208.083 4.5 207.935 4.21023C207.79 3.92045 207.583 3.69176 207.313 3.52415C207.046 3.35653 206.731 3.27273 206.367 3.27273C205.967 3.27273 205.62 3.37216 205.327 3.57102C205.038 3.76705 204.815 4.02273 204.658 4.33807C204.502 4.65341 204.424 4.99148 204.424 5.35227V5.93182C204.424 6.42614 204.509 6.84517 204.68 7.18892C204.853 7.52983 205.093 7.78977 205.4 7.96875C205.707 8.14489 206.063 8.23295 206.469 8.23295C206.734 8.23295 206.972 8.19602 207.185 8.12216C207.401 8.04545 207.587 7.93182 207.744 7.78125C207.9 7.62784 208.021 7.4375 208.106 7.21023L209.077 7.48295C208.975 7.8125 208.803 8.10227 208.562 8.35227C208.32 8.59943 208.022 8.79261 207.667 8.93182C207.312 9.06818 206.913 9.13636 206.469 9.13636ZM210.71 9V2.45455H211.681V3.44318H211.749C211.869 3.11932 212.085 2.85653 212.397 2.65483C212.71 2.45312 213.062 2.35227 213.454 2.35227C213.528 2.35227 213.62 2.35369 213.731 2.35653C213.842 2.35937 213.925 2.36364 213.982 2.36932V3.39205C213.948 3.38352 213.87 3.37074 213.748 3.35369C213.629 3.33381 213.502 3.32386 213.369 3.32386C213.05 3.32386 212.766 3.39062 212.516 3.52415C212.269 3.65483 212.073 3.83665 211.928 4.0696C211.786 4.29972 211.715 4.5625 211.715 4.85795V9H210.71ZM220.726 2.45455L218.305 9H217.283L214.862 2.45455H215.953L217.76 7.67045H217.828L219.635 2.45455H220.726ZM224.563 9.13636C223.933 9.13636 223.388 8.99716 222.931 8.71875C222.477 8.4375 222.126 8.04545 221.879 7.54261C221.634 7.03693 221.512 6.44886 221.512 5.77841C221.512 5.10795 221.634 4.51705 221.879 4.00568C222.126 3.49148 222.469 3.09091 222.91 2.80398C223.353 2.5142 223.87 2.36932 224.461 2.36932C224.802 2.36932 225.138 2.42614 225.471 2.53977C225.803 2.65341 226.106 2.83807 226.379 3.09375C226.651 3.34659 226.869 3.68182 227.031 4.09943C227.192 4.51705 227.273 5.03125 227.273 5.64205V6.06818H222.228V5.19886H226.251C226.251 4.82955 226.177 4.5 226.029 4.21023C225.884 3.92045 225.677 3.69176 225.407 3.52415C225.14 3.35653 224.825 3.27273 224.461 3.27273C224.06 3.27273 223.714 3.37216 223.421 3.57102C223.131 3.76705 222.908 4.02273 222.752 4.33807C222.596 4.65341 222.518 4.99148 222.518 5.35227V5.93182C222.518 6.42614 222.603 6.84517 222.773 7.18892C222.947 7.52983 223.187 7.78977 223.494 7.96875C223.8 8.14489 224.157 8.23295 224.563 8.23295C224.827 8.23295 225.066 8.19602 225.279 8.12216C225.495 8.04545 225.681 7.93182 225.837 7.78125C225.994 7.62784 226.114 7.4375 226.2 7.21023L227.171 7.48295C227.069 7.8125 226.897 8.10227 226.656 8.35227C226.414 8.59943 226.116 8.79261 225.761 8.93182C225.406 9.06818 225.006 9.13636 224.563 9.13636ZM231.275 9.13636C230.729 9.13636 230.248 8.99858 229.83 8.72301C229.413 8.4446 229.086 8.05256 228.85 7.54688C228.614 7.03835 228.496 6.4375 228.496 5.74432C228.496 5.05682 228.614 4.46023 228.85 3.95455C229.086 3.44886 229.414 3.05824 229.835 2.78267C230.255 2.5071 230.741 2.36932 231.292 2.36932C231.718 2.36932 232.055 2.44034 232.302 2.58239C232.552 2.72159 232.742 2.88068 232.873 3.05966C233.006 3.2358 233.11 3.38068 233.184 3.49432H233.269V0.272727H234.275V9H233.303V7.99432H233.184C233.11 8.11364 233.005 8.2642 232.869 8.44602C232.732 8.625 232.538 8.78551 232.285 8.92756C232.032 9.06676 231.695 9.13636 231.275 9.13636ZM231.411 8.23295C231.815 8.23295 232.156 8.12784 232.434 7.91761C232.712 7.70455 232.924 7.41051 233.069 7.03551C233.214 6.65767 233.286 6.22159 233.286 5.72727C233.286 5.23864 233.215 4.81108 233.073 4.4446C232.931 4.07528 232.721 3.78835 232.442 3.58381C232.164 3.37642 231.82 3.27273 231.411 3.27273C230.985 3.27273 230.63 3.3821 230.346 3.60085C230.065 3.81676 229.853 4.1108 229.711 4.48295C229.572 4.85227 229.502 5.26705 229.502 5.72727C229.502 6.19318 229.573 6.61648 229.715 6.99716C229.86 7.375 230.073 7.67614 230.354 7.90057C230.638 8.12216 230.991 8.23295 231.411 8.23295ZM236.989 9.06818C236.779 9.06818 236.599 8.9929 236.448 8.84233C236.298 8.69176 236.222 8.51136 236.222 8.30114C236.222 8.09091 236.298 7.91051 236.448 7.75994C236.599 7.60937 236.779 7.53409 236.989 7.53409C237.2 7.53409 237.38 7.60937 237.531 7.75994C237.681 7.91051 237.756 8.09091 237.756 8.30114C237.756 8.44034 237.721 8.56818 237.65 8.68466C237.582 8.80114 237.489 8.89489 237.373 8.96591C237.259 9.03409 237.131 9.06818 236.989 9.06818Z" fill="white"/>
</svg>
