<svg width="316" height="33" viewBox="0 0 316 33" fill="none" xmlns="http://www.w3.org/2000/svg">
<path d="M11.3711 32H0.527344V-9.53674e-07H11.5898C14.7669 -9.53674e-07 17.4961 0.640624 19.7773 1.92188C22.069 3.19271 23.8294 5.02083 25.0586 7.40625C26.2878 9.79167 26.9023 12.6458 26.9023 15.9687C26.9023 19.3021 26.2826 22.1667 25.043 24.5625C23.8138 26.9583 22.0378 28.7969 19.7148 30.0781C17.4023 31.3594 14.6211 32 11.3711 32ZM6.32422 26.9844H11.0898C13.319 26.9844 15.1784 26.5781 16.668 25.7656C18.1576 24.9427 19.2773 23.7187 20.0273 22.0937C20.7773 20.4583 21.1523 18.4167 21.1523 15.9687C21.1523 13.5208 20.7773 11.4896 20.0273 9.875C19.2773 8.25 18.168 7.03646 16.6992 6.23438C15.2409 5.42188 13.4284 5.01562 11.2617 5.01562H6.32422V26.9844ZM42.6289 32.4688C40.2852 32.4688 38.2539 31.9531 36.5352 30.9219C34.8164 29.8906 33.4831 28.4479 32.5352 26.5937C31.5977 24.7396 31.1289 22.5729 31.1289 20.0937C31.1289 17.6146 31.5977 15.4427 32.5352 13.5781C33.4831 11.7135 34.8164 10.2656 36.5352 9.23438C38.2539 8.20313 40.2852 7.6875 42.6289 7.6875C44.9727 7.6875 47.0039 8.20313 48.7227 9.23438C50.4414 10.2656 51.7695 11.7135 52.707 13.5781C53.6549 15.4427 54.1289 17.6146 54.1289 20.0937C54.1289 22.5729 53.6549 24.7396 52.707 26.5937C51.7695 28.4479 50.4414 29.8906 48.7227 30.9219C47.0039 31.9531 44.9727 32.4688 42.6289 32.4688ZM42.6602 27.9375C43.931 27.9375 44.9935 27.5885 45.8477 26.8906C46.7018 26.1823 47.3372 25.2344 47.7539 24.0469C48.181 22.8594 48.3945 21.5365 48.3945 20.0781C48.3945 18.6094 48.181 17.2812 47.7539 16.0937C47.3372 14.8958 46.7018 13.9427 45.8477 13.2344C44.9935 12.526 43.931 12.1719 42.6602 12.1719C41.3581 12.1719 40.2747 12.526 39.4102 13.2344C38.556 13.9427 37.9154 14.8958 37.4883 16.0937C37.0716 17.2812 36.8633 18.6094 36.8633 20.0781C36.8633 21.5365 37.0716 22.8594 37.4883 24.0469C37.9154 25.2344 38.556 26.1823 39.4102 26.8906C40.2747 27.5885 41.3581 27.9375 42.6602 27.9375ZM63.1953 32L56.4141 8H62.1797L66.3984 24.875H66.6172L70.9297 8H76.6328L80.9453 24.7812H81.1797L85.3359 8H91.1172L84.3203 32H78.4297L73.9297 15.7812H73.6016L69.1016 32H63.1953ZM100.723 17.9375V32H95.0664V8H100.473V12.0781H100.754C101.306 10.7344 102.186 9.66667 103.395 8.875C104.613 8.08333 106.118 7.6875 107.91 7.6875C109.566 7.6875 111.009 8.04167 112.238 8.75C113.478 9.45833 114.436 10.4844 115.113 11.8281C115.801 13.1719 116.139 14.8021 116.129 16.7187V32H110.473V17.5937C110.473 15.9896 110.056 14.7344 109.223 13.8281C108.4 12.9219 107.259 12.4687 105.801 12.4687C104.811 12.4687 103.931 12.6875 103.16 13.125C102.4 13.5521 101.801 14.1719 101.363 14.9844C100.936 15.7969 100.723 16.7812 100.723 17.9375ZM127.535 -9.53674e-07V32H121.879V-9.53674e-07H127.535ZM143.82 32.4688C141.477 32.4688 139.445 31.9531 137.727 30.9219C136.008 29.8906 134.674 28.4479 133.727 26.5937C132.789 24.7396 132.32 22.5729 132.32 20.0937C132.32 17.6146 132.789 15.4427 133.727 13.5781C134.674 11.7135 136.008 10.2656 137.727 9.23438C139.445 8.20313 141.477 7.6875 143.82 7.6875C146.164 7.6875 148.195 8.20313 149.914 9.23438C151.633 10.2656 152.961 11.7135 153.898 13.5781C154.846 15.4427 155.32 17.6146 155.32 20.0937C155.32 22.5729 154.846 24.7396 153.898 26.5937C152.961 28.4479 151.633 29.8906 149.914 30.9219C148.195 31.9531 146.164 32.4688 143.82 32.4688ZM143.852 27.9375C145.122 27.9375 146.185 27.5885 147.039 26.8906C147.893 26.1823 148.529 25.2344 148.945 24.0469C149.372 22.8594 149.586 21.5365 149.586 20.0781C149.586 18.6094 149.372 17.2812 148.945 16.0937C148.529 14.8958 147.893 13.9427 147.039 13.2344C146.185 12.526 145.122 12.1719 143.852 12.1719C142.549 12.1719 141.466 12.526 140.602 13.2344C139.747 13.9427 139.107 14.8958 138.68 16.0937C138.263 17.2812 138.055 18.6094 138.055 20.0781C138.055 21.5365 138.263 22.8594 138.68 24.0469C139.107 25.2344 139.747 26.1823 140.602 26.8906C141.466 27.5885 142.549 27.9375 143.852 27.9375ZM167.027 32.4844C165.507 32.4844 164.137 32.2135 162.918 31.6719C161.71 31.1198 160.751 30.3073 160.043 29.2344C159.345 28.1615 158.996 26.8385 158.996 25.2656C158.996 23.9115 159.246 22.7917 159.746 21.9062C160.246 21.0208 160.928 20.3125 161.793 19.7812C162.658 19.25 163.632 18.849 164.715 18.5781C165.809 18.2969 166.939 18.0937 168.105 17.9687C169.512 17.8229 170.652 17.6927 171.527 17.5781C172.402 17.4531 173.038 17.2656 173.434 17.0156C173.84 16.7552 174.043 16.3542 174.043 15.8125V15.7188C174.043 14.5417 173.694 13.6302 172.996 12.9844C172.298 12.3385 171.293 12.0156 169.98 12.0156C168.595 12.0156 167.496 12.3177 166.684 12.9219C165.882 13.526 165.34 14.2396 165.059 15.0625L159.777 14.3125C160.194 12.8542 160.882 11.6354 161.84 10.6562C162.798 9.66667 163.97 8.92708 165.355 8.4375C166.741 7.9375 168.272 7.6875 169.949 7.6875C171.105 7.6875 172.257 7.82292 173.402 8.09375C174.548 8.36458 175.595 8.8125 176.543 9.4375C177.491 10.0521 178.251 10.8906 178.824 11.9531C179.408 13.0156 179.699 14.3437 179.699 15.9375V32H174.262V28.7031H174.074C173.73 29.3698 173.246 29.9948 172.621 30.5781C172.007 31.151 171.23 31.6146 170.293 31.9687C169.366 32.3125 168.277 32.4844 167.027 32.4844ZM168.496 28.3281C169.632 28.3281 170.616 28.1042 171.449 27.6562C172.283 27.1979 172.923 26.5937 173.371 25.8437C173.829 25.0937 174.059 24.276 174.059 23.3906V20.5625C173.882 20.7083 173.579 20.8437 173.152 20.9687C172.736 21.0937 172.267 21.2031 171.746 21.2969C171.225 21.3906 170.71 21.474 170.199 21.5469C169.689 21.6198 169.246 21.6823 168.871 21.7344C168.027 21.849 167.272 22.0365 166.605 22.2969C165.939 22.5573 165.413 22.9219 165.027 23.3906C164.642 23.849 164.449 24.4427 164.449 25.1719C164.449 26.2135 164.829 27 165.59 27.5312C166.35 28.0625 167.319 28.3281 168.496 28.3281ZM194.293 32.4219C192.408 32.4219 190.72 31.9375 189.23 30.9688C187.741 30 186.564 28.5937 185.699 26.75C184.835 24.9062 184.402 22.6667 184.402 20.0312C184.402 17.3646 184.84 15.1146 185.715 13.2812C186.6 11.4375 187.793 10.0469 189.293 9.10937C190.793 8.16146 192.465 7.6875 194.309 7.6875C195.715 7.6875 196.871 7.92708 197.777 8.40625C198.684 8.875 199.402 9.44271 199.934 10.1094C200.465 10.7656 200.876 11.3854 201.168 11.9687H201.402V-9.53674e-07H207.074V32H201.512V28.2188H201.168C200.876 28.8021 200.454 29.4219 199.902 30.0781C199.35 30.724 198.621 31.276 197.715 31.7344C196.809 32.1927 195.668 32.4219 194.293 32.4219ZM195.871 27.7812C197.069 27.7812 198.09 27.4583 198.934 26.8125C199.777 26.1562 200.418 25.2448 200.855 24.0781C201.293 22.9115 201.512 21.5521 201.512 20C201.512 18.4479 201.293 17.099 200.855 15.9531C200.428 14.8073 199.793 13.9167 198.949 13.2812C198.116 12.6458 197.09 12.3281 195.871 12.3281C194.611 12.3281 193.559 12.6562 192.715 13.3125C191.871 13.9687 191.236 14.875 190.809 16.0312C190.382 17.1875 190.168 18.5104 190.168 20C190.168 21.5 190.382 22.8385 190.809 24.0156C191.246 25.1823 191.887 26.1042 192.73 26.7812C193.585 27.4479 194.632 27.7812 195.871 27.7812ZM250.563 -9.53674e-07V32H245.406L230.328 10.2031H230.063V32H224.266V-9.53674e-07H229.453L244.516 21.8125H244.797V-9.53674e-07H250.563ZM267.098 32.4688C264.754 32.4688 262.723 31.9531 261.004 30.9219C259.285 29.8906 257.952 28.4479 257.004 26.5937C256.066 24.7396 255.598 22.5729 255.598 20.0937C255.598 17.6146 256.066 15.4427 257.004 13.5781C257.952 11.7135 259.285 10.2656 261.004 9.23438C262.723 8.20313 264.754 7.6875 267.098 7.6875C269.441 7.6875 271.473 8.20313 273.191 9.23438C274.91 10.2656 276.238 11.7135 277.176 13.5781C278.124 15.4427 278.598 17.6146 278.598 20.0937C278.598 22.5729 278.124 24.7396 277.176 26.5937C276.238 28.4479 274.91 29.8906 273.191 30.9219C271.473 31.9531 269.441 32.4688 267.098 32.4688ZM267.129 27.9375C268.4 27.9375 269.462 27.5885 270.316 26.8906C271.171 26.1823 271.806 25.2344 272.223 24.0469C272.65 22.8594 272.863 21.5365 272.863 20.0781C272.863 18.6094 272.65 17.2812 272.223 16.0937C271.806 14.8958 271.171 13.9427 270.316 13.2344C269.462 12.526 268.4 12.1719 267.129 12.1719C265.827 12.1719 264.743 12.526 263.879 13.2344C263.025 13.9427 262.384 14.8958 261.957 16.0937C261.54 17.2812 261.332 18.6094 261.332 20.0781C261.332 21.5365 261.54 22.8594 261.957 24.0469C262.384 25.2344 263.025 26.1823 263.879 26.8906C264.743 27.5885 265.827 27.9375 267.129 27.9375ZM287.664 32L280.883 8H286.648L290.867 24.875H291.086L295.398 8H301.102L305.414 24.7812H305.648L309.805 8H315.586L308.789 32H302.898L298.398 15.7812H298.07L293.57 32H287.664Z" fill="white"/>
</svg>
