<svg width="237" height="42" viewBox="0 0 237 42" fill="none" xmlns="http://www.w3.org/2000/svg">
<path d="M0.189986 40.7317V1.45896H25.7326V7.42274H7.30433V18.0847H24.4094V24.0485H7.30433V34.7679H25.886V40.7317H0.189986ZM41.1598 41.3261C39.2933 41.3261 37.6122 40.9938 36.1165 40.329C34.6335 39.6514 33.4574 38.6543 32.5881 37.3375C31.7315 36.0208 31.3033 34.3972 31.3033 32.4668C31.3033 30.8048 31.6101 29.4306 32.2237 28.3439C32.8374 27.2573 33.6747 26.3879 34.7358 25.736C35.7969 25.084 36.9922 24.5918 38.3217 24.2594C39.6641 23.9142 41.0511 23.6649 42.483 23.5115C44.2088 23.3325 45.6087 23.1727 46.6825 23.0321C47.7564 22.8787 48.5362 22.6486 49.022 22.3418C49.5206 22.0222 49.7699 21.53 49.7699 20.8652V20.7502C49.7699 19.3056 49.3416 18.1869 48.4851 17.3943C47.6286 16.6017 46.3949 16.2054 44.7841 16.2054C43.0838 16.2054 41.7351 16.5761 40.7379 17.3176C39.7536 18.0591 39.0888 18.9348 38.7436 19.9448L32.2621 19.0243C32.7734 17.2345 33.6172 15.7388 34.7933 14.5371C35.9695 13.3226 37.4077 12.4149 39.108 11.8141C40.8082 11.2004 42.6875 10.8936 44.7457 10.8936C46.1648 10.8936 47.5774 11.0598 48.9837 11.3922C50.3899 11.7246 51.6747 12.2743 52.8381 13.0413C54.0014 13.7956 54.9347 14.8247 55.6378 16.1287C56.3537 17.4327 56.7116 19.0627 56.7116 21.0186V40.7317H50.0384V36.6855H49.8082C49.3864 37.5037 48.7919 38.2708 48.0249 38.9867C47.2706 39.6898 46.3182 40.2587 45.1676 40.6933C44.0298 41.1152 42.6939 41.3261 41.1598 41.3261ZM42.9624 36.2253C44.3558 36.2253 45.5639 35.9504 46.5866 35.4007C47.6094 34.8382 48.3956 34.0967 48.9453 33.1763C49.5078 32.2558 49.7891 31.2523 49.7891 30.1656V26.6948C49.5717 26.8737 49.201 27.0399 48.6768 27.1933C48.1655 27.3467 47.5902 27.481 46.951 27.596C46.3118 27.7111 45.679 27.8134 45.0526 27.9029C44.4261 27.9923 43.8828 28.069 43.4226 28.133C42.3871 28.2736 41.4602 28.5037 40.642 28.8233C39.8239 29.1429 39.1783 29.5904 38.7053 30.1656C38.2322 30.7281 37.9957 31.4568 37.9957 32.3517C37.9957 33.6301 38.4624 34.5953 39.3956 35.2473C40.3288 35.8993 41.5178 36.2253 42.9624 36.2253ZM78.3999 11.2771V16.6465H61.4673V11.2771H78.3999ZM65.6477 4.22033H72.5895V31.8723C72.5895 32.8056 72.7301 33.5215 73.0114 34.02C73.3054 34.5058 73.6889 34.8382 74.1619 35.0172C74.6349 35.1962 75.1591 35.2857 75.7344 35.2857C76.169 35.2857 76.5653 35.2537 76.9233 35.1898C77.294 35.1259 77.5753 35.0683 77.767 35.0172L78.9368 40.444C78.5661 40.5719 78.0355 40.7125 77.3452 40.8659C76.6676 41.0193 75.8366 41.1088 74.8523 41.1344C73.1136 41.1855 71.5476 40.9235 70.1541 40.3482C68.7607 39.7601 67.6548 38.8524 66.8366 37.6252C66.0313 36.3979 65.6349 34.8638 65.6477 33.0229V4.22033ZM105.855 12.2551C105.676 10.5804 104.922 9.27643 103.593 8.34319C102.276 7.40996 100.563 6.94334 98.4533 6.94334C96.9703 6.94334 95.6983 7.16706 94.6373 7.6145C93.5762 8.06194 92.7644 8.66919 92.2019 9.43623C91.6394 10.2033 91.3517 11.079 91.339 12.0634C91.339 12.8815 91.5243 13.5911 91.8951 14.1919C92.2786 14.7928 92.7963 15.3041 93.4483 15.726C94.1003 16.1351 94.8226 16.4803 95.6152 16.7615C96.4078 17.0428 97.2069 17.2793 98.0123 17.471L101.694 18.3915C103.177 18.7367 104.602 19.2033 105.97 19.7913C107.351 20.3794 108.585 21.1209 109.671 22.0158C110.771 22.9107 111.64 23.9909 112.279 25.2565C112.919 26.5222 113.238 28.0051 113.238 29.7054C113.238 32.0065 112.65 34.0328 111.474 35.7842C110.298 37.5229 108.597 38.8844 106.373 39.8688C104.161 40.8404 101.483 41.3261 98.3382 41.3261C95.2828 41.3261 92.6301 40.8531 90.3801 39.9071C88.1429 38.9611 86.3915 37.5804 85.1259 35.7651C83.873 33.9497 83.1955 31.7381 83.0932 29.1301H90.0925C90.1948 30.498 90.6167 31.6358 91.3581 32.5435C92.0996 33.4511 93.0648 34.1287 94.2537 34.5761C95.4554 35.0236 96.7978 35.2473 98.2807 35.2473C99.8276 35.2473 101.183 35.0172 102.346 34.557C103.522 34.084 104.443 33.432 105.107 32.601C105.772 31.7573 106.111 30.7729 106.124 29.6479C106.111 28.6252 105.811 27.7814 105.222 27.1166C104.634 26.4391 103.81 25.8766 102.749 25.4291C101.7 24.9689 100.473 24.5598 99.0669 24.2019L94.5989 23.0513C91.3645 22.2203 88.8077 20.9611 86.9284 19.2736C85.062 17.5733 84.1287 15.3169 84.1287 12.5044C84.1287 10.1905 84.7551 8.16422 86.008 6.42558C87.2736 4.68694 88.9931 3.33822 91.1664 2.37941C93.3397 1.40782 95.8006 0.922029 98.5492 0.922029C101.336 0.922029 103.778 1.40782 105.874 2.37941C107.984 3.33822 109.639 4.67416 110.841 6.38723C112.043 8.08751 112.663 10.0435 112.701 12.2551H105.855ZM119.274 40.7317V11.2771H125.909V16.2821H126.254C126.868 14.5946 127.884 13.2779 129.303 12.3318C130.722 11.373 132.416 10.8936 134.385 10.8936C136.379 10.8936 138.06 11.3794 139.428 12.351C140.809 13.3098 141.78 14.6202 142.343 16.2821H142.65C143.301 14.6458 144.401 13.3418 145.948 12.3702C147.507 11.3858 149.355 10.8936 151.49 10.8936C154.2 10.8936 156.412 11.7502 158.125 13.4632C159.838 15.1763 160.694 17.6756 160.694 20.9611V40.7317H153.733V22.035C153.733 20.2068 153.248 18.8709 152.276 18.0271C151.304 17.1706 150.115 16.7423 148.709 16.7423C147.034 16.7423 145.724 17.2665 144.778 18.3148C143.845 19.3503 143.378 20.699 143.378 22.361V40.7317H136.571V21.7473C136.571 20.226 136.11 19.0115 135.19 18.1038C134.282 17.1962 133.093 16.7423 131.623 16.7423C130.626 16.7423 129.718 16.998 128.9 17.5094C128.082 18.008 127.43 18.7175 126.944 19.6379C126.458 20.5456 126.216 21.6067 126.216 22.8212V40.7317H119.274ZM176.213 41.3261C174.346 41.3261 172.665 40.9938 171.169 40.329C169.686 39.6514 168.51 38.6543 167.641 37.3375C166.784 36.0208 166.356 34.3972 166.356 32.4668C166.356 30.8048 166.663 29.4306 167.276 28.3439C167.89 27.2573 168.727 26.3879 169.789 25.736C170.85 25.084 172.045 24.5918 173.374 24.2594C174.717 23.9142 176.104 23.6649 177.536 23.5115C179.262 23.3325 180.661 23.1727 181.735 23.0321C182.809 22.8787 183.589 22.6486 184.075 22.3418C184.573 22.0222 184.823 21.53 184.823 20.8652V20.7502C184.823 19.3056 184.394 18.1869 183.538 17.3943C182.681 16.6017 181.448 16.2054 179.837 16.2054C178.137 16.2054 176.788 16.5761 175.791 17.3176C174.806 18.0591 174.142 18.9348 173.796 19.9448L167.315 19.0243C167.826 17.2345 168.67 15.7388 169.846 14.5371C171.022 13.3226 172.46 12.4149 174.161 11.8141C175.861 11.2004 177.74 10.8936 179.798 10.8936C181.218 10.8936 182.63 11.0598 184.036 11.3922C185.443 11.7246 186.727 12.2743 187.891 13.0413C189.054 13.7956 189.987 14.8247 190.691 16.1287C191.406 17.4327 191.764 19.0627 191.764 21.0186V40.7317H185.091V36.6855H184.861C184.439 37.5037 183.845 38.2708 183.078 38.9867C182.323 39.6898 181.371 40.2587 180.22 40.6933C179.083 41.1152 177.747 41.3261 176.213 41.3261ZM178.015 36.2253C179.409 36.2253 180.617 35.9504 181.639 35.4007C182.662 34.8382 183.448 34.0967 183.998 33.1763C184.561 32.2558 184.842 31.2523 184.842 30.1656V26.6948C184.624 26.8737 184.254 27.0399 183.73 27.1933C183.218 27.3467 182.643 27.481 182.004 27.596C181.365 27.7111 180.732 27.8134 180.105 27.9029C179.479 27.9923 178.936 28.069 178.475 28.133C177.44 28.2736 176.513 28.5037 175.695 28.8233C174.877 29.1429 174.231 29.5904 173.758 30.1656C173.285 30.7281 173.048 31.4568 173.048 32.3517C173.048 33.6301 173.515 34.5953 174.448 35.2473C175.382 35.8993 176.57 36.2253 178.015 36.2253ZM198.744 40.7317V11.2771H205.475V16.1862H205.782C206.319 14.486 207.24 13.1756 208.544 12.2551C209.86 11.3219 211.362 10.8553 213.05 10.8553C213.433 10.8553 213.862 10.8744 214.335 10.9128C214.82 10.9384 215.223 10.9831 215.543 11.047V17.4327C215.249 17.3304 214.782 17.2409 214.143 17.1642C213.517 17.0747 212.909 17.03 212.321 17.03C211.056 17.03 209.918 17.3048 208.908 17.8546C207.911 18.3915 207.124 19.1394 206.549 20.0982C205.974 21.057 205.686 22.1628 205.686 23.4156V40.7317H198.744ZM236.445 11.2771V16.6465H219.512V11.2771H236.445ZM223.693 4.22033H230.634V31.8723C230.634 32.8056 230.775 33.5215 231.056 34.02C231.35 34.5058 231.734 34.8382 232.207 35.0172C232.68 35.1962 233.204 35.2857 233.779 35.2857C234.214 35.2857 234.61 35.2537 234.968 35.1898C235.339 35.1259 235.62 35.0683 235.812 35.0172L236.982 40.444C236.611 40.5719 236.08 40.7125 235.39 40.8659C234.713 41.0193 233.882 41.1088 232.897 41.1344C231.159 41.1855 229.593 40.9235 228.199 40.3482C226.806 39.7601 225.7 38.8524 224.882 37.6252C224.076 36.3979 223.68 34.8638 223.693 33.0229V4.22033Z" fill="white"/>
</svg>
