<svg width="167" height="79" viewBox="0 0 167 79" fill="none" xmlns="http://www.w3.org/2000/svg">
<g clip-path="url(#clip0_1_50)">
<path d="M91.7892 8.30905C91.6656 7.38994 91.3762 6.53363 90.9912 5.69445C89.4513 2.32344 85.7055 0.151272 82.0637 0.508067C81.1533 0.596553 80.2737 0.776378 79.4307 1.13317C78.4472 1.54706 77.5874 2.06941 76.7753 2.77443C75.3843 3.97898 74.3614 5.69445 73.9315 7.49841C73.51 9.2567 73.569 11.1834 74.2013 12.8846C74.9094 14.7856 76.1261 16.3698 77.7897 17.5058C80.8105 19.5667 85.1042 19.5153 88.0435 17.3146C88.4622 17.0006 88.8668 16.6752 89.2349 16.3013C90.5163 14.9883 91.452 13.2614 91.7499 11.4317C91.8342 10.9179 91.8988 10.3956 91.9073 9.8761C91.9157 9.35089 91.8567 8.83711 91.7864 8.31761L91.7892 8.30905Z" fill="white"/>
<path d="M164.386 0.13416C122.964 1.09323 89.5581 35.0259 88.6139 77.1021C88.5914 78.1097 89.4035 78.9346 90.3955 78.9118C131.818 77.9527 165.224 44.02 166.168 1.94383C166.19 0.936237 165.378 0.111326 164.386 0.13416Z" fill="white"/>
<path d="M2.10141 0.134069C43.5241 1.09314 76.9297 35.0258 77.8739 77.102C77.8964 78.1096 77.0843 78.9345 76.0923 78.9117C34.6669 77.9555 1.26122 44.0228 0.317045 1.94659C0.294565 0.936146 1.10666 0.111234 2.10141 0.134069Z" fill="white"/>
</g>
<defs>
<clipPath id="clip0_1_50">
<rect width="165.854" height="78.7805" fill="white" transform="translate(0.317078)"/>
</clipPath>
</defs>
</svg>
