<svg width="561" height="70" viewBox="0 0 561 70" fill="none" xmlns="http://www.w3.org/2000/svg">
<path d="M3.77273 0.727272L10.6818 20.3182H10.9545L17.8636 0.727272H20.8182L12.2727 24H9.36364L0.818182 0.727272H3.77273ZM29.5455 24.3636C27.9697 24.3636 26.5871 23.9886 25.3977 23.2386C24.2159 22.4886 23.2917 21.4394 22.625 20.0909C21.9659 18.7424 21.6364 17.1667 21.6364 15.3636C21.6364 13.5455 21.9659 11.9583 22.625 10.6023C23.2917 9.24621 24.2159 8.19318 25.3977 7.44318C26.5871 6.69318 27.9697 6.31818 29.5455 6.31818C31.1212 6.31818 32.5 6.69318 33.6818 7.44318C34.8712 8.19318 35.7955 9.24621 36.4545 10.6023C37.1212 11.9583 37.4545 13.5455 37.4545 15.3636C37.4545 17.1667 37.1212 18.7424 36.4545 20.0909C35.7955 21.4394 34.8712 22.4886 33.6818 23.2386C32.5 23.9886 31.1212 24.3636 29.5455 24.3636ZM29.5455 21.9545C30.7424 21.9545 31.7273 21.6477 32.5 21.0341C33.2727 20.4205 33.8447 19.6136 34.2159 18.6136C34.5871 17.6136 34.7727 16.5303 34.7727 15.3636C34.7727 14.197 34.5871 13.1098 34.2159 12.1023C33.8447 11.0947 33.2727 10.2803 32.5 9.65909C31.7273 9.03788 30.7424 8.72727 29.5455 8.72727C28.3485 8.72727 27.3636 9.03788 26.5909 9.65909C25.8182 10.2803 25.2462 11.0947 24.875 12.1023C24.5038 13.1098 24.3182 14.197 24.3182 15.3636C24.3182 16.5303 24.5038 17.6136 24.875 18.6136C25.2462 19.6136 25.8182 20.4205 26.5909 21.0341C27.3636 21.6477 28.3485 21.9545 29.5455 21.9545ZM41.5483 24V6.54545H44.2301V24H41.5483ZM42.9119 3.63636C42.3892 3.63636 41.9384 3.45833 41.5597 3.10227C41.1884 2.74621 41.0028 2.31818 41.0028 1.81818C41.0028 1.31818 41.1884 0.890151 41.5597 0.53409C41.9384 0.17803 42.3892 0 42.9119 0C43.4347 0 43.8816 0.17803 44.2528 0.53409C44.6316 0.890151 44.821 1.31818 44.821 1.81818C44.821 2.31818 44.6316 2.74621 44.2528 3.10227C43.8816 3.45833 43.4347 3.63636 42.9119 3.63636ZM56.233 24.3636C54.5966 24.3636 53.1875 23.9773 52.0057 23.2045C50.8239 22.4318 49.9148 21.3674 49.2784 20.0114C48.642 18.6553 48.3239 17.1061 48.3239 15.3636C48.3239 13.5909 48.6496 12.0265 49.3011 10.6705C49.9602 9.30682 50.8769 8.24242 52.0511 7.47727C53.233 6.70455 54.6117 6.31818 56.1875 6.31818C57.4148 6.31818 58.5208 6.54545 59.5057 7C60.4905 7.45455 61.2973 8.09091 61.9261 8.90909C62.5549 9.72727 62.9451 10.6818 63.0966 11.7727H60.4148C60.2102 10.9773 59.7557 10.2727 59.0511 9.65909C58.3542 9.03788 57.4148 8.72727 56.233 8.72727C55.1875 8.72727 54.2708 9 53.483 9.54545C52.7027 10.0833 52.0928 10.8447 51.6534 11.8295C51.2216 12.8068 51.0057 13.9545 51.0057 15.2727C51.0057 16.6212 51.2178 17.7955 51.642 18.7955C52.0739 19.7955 52.6799 20.572 53.4602 21.125C54.2481 21.678 55.1723 21.9545 56.233 21.9545C56.9299 21.9545 57.5625 21.8333 58.1307 21.5909C58.6989 21.3485 59.1799 21 59.5739 20.5455C59.9678 20.0909 60.2481 19.5455 60.4148 18.9091H63.0966C62.9451 19.9394 62.5701 20.8674 61.9716 21.6932C61.3807 22.5114 60.5966 23.1629 59.6193 23.6477C58.6496 24.125 57.5208 24.3636 56.233 24.3636ZM74.3352 24.3636C72.6534 24.3636 71.2027 23.9924 69.983 23.25C68.7708 22.5 67.8352 21.4545 67.1761 20.1136C66.5246 18.7652 66.1989 17.197 66.1989 15.4091C66.1989 13.6212 66.5246 12.0455 67.1761 10.6818C67.8352 9.31061 68.7519 8.24242 69.9261 7.47727C71.108 6.70455 72.4867 6.31818 74.0625 6.31818C74.9716 6.31818 75.8693 6.4697 76.7557 6.77273C77.642 7.07576 78.4489 7.56818 79.1761 8.25C79.9034 8.92424 80.483 9.81818 80.9148 10.9318C81.3466 12.0455 81.5625 13.4167 81.5625 15.0455V16.1818H68.108V13.8636H78.8352C78.8352 12.8788 78.6383 12 78.2443 11.2273C77.858 10.4545 77.3049 9.8447 76.5852 9.39773C75.8731 8.95076 75.0322 8.72727 74.0625 8.72727C72.9943 8.72727 72.0701 8.99242 71.2898 9.52273C70.517 10.0455 69.9223 10.7273 69.5057 11.5682C69.089 12.4091 68.8807 13.3106 68.8807 14.2727V15.8182C68.8807 17.1364 69.108 18.2538 69.5625 19.1705C70.0246 20.0795 70.6648 20.7727 71.483 21.25C72.3011 21.7197 73.2519 21.9545 74.3352 21.9545C75.0398 21.9545 75.6761 21.8561 76.2443 21.6591C76.8201 21.4545 77.3163 21.1515 77.733 20.75C78.1496 20.3409 78.4716 19.8333 78.6989 19.2273L81.2898 19.9545C81.017 20.8333 80.5587 21.6061 79.9148 22.2727C79.2708 22.9318 78.4754 23.447 77.5284 23.8182C76.5814 24.1818 75.517 24.3636 74.3352 24.3636ZM95.0057 24V0.727272H109.051V3.22727H97.8239V11.0909H108.324V13.5909H97.8239V21.5H109.233V24H95.0057ZM116.449 13.5V24H113.767V6.54545H116.358V9.27273H116.585C116.994 8.38636 117.616 7.67424 118.449 7.13636C119.282 6.59091 120.358 6.31818 121.676 6.31818C122.858 6.31818 123.892 6.56061 124.778 7.04545C125.665 7.52273 126.354 8.25 126.847 9.22727C127.339 10.197 127.585 11.4242 127.585 12.9091V24H124.903V13.0909C124.903 11.7197 124.547 10.6515 123.835 9.88636C123.123 9.11364 122.146 8.72727 120.903 8.72727C120.047 8.72727 119.282 8.91288 118.608 9.28409C117.941 9.6553 117.415 10.197 117.028 10.9091C116.642 11.6212 116.449 12.4848 116.449 13.5ZM137.622 24.4091C136.516 24.4091 135.512 24.2008 134.611 23.7841C133.709 23.3598 132.993 22.75 132.463 21.9545C131.933 21.1515 131.668 20.1818 131.668 19.0455C131.668 18.0455 131.865 17.2348 132.259 16.6136C132.652 15.9848 133.179 15.4924 133.838 15.1364C134.497 14.7803 135.224 14.5152 136.02 14.3409C136.823 14.1591 137.63 14.0152 138.44 13.9091C139.501 13.7727 140.361 13.6705 141.02 13.6023C141.687 13.5265 142.171 13.4015 142.474 13.2273C142.785 13.053 142.94 12.75 142.94 12.3182V12.2273C142.94 11.1061 142.634 10.2348 142.02 9.61364C141.414 8.99242 140.493 8.68182 139.259 8.68182C137.978 8.68182 136.974 8.96212 136.247 9.52273C135.52 10.0833 135.009 10.6818 134.713 11.3182L132.168 10.4091C132.622 9.34848 133.228 8.52273 133.986 7.93182C134.751 7.33333 135.584 6.91667 136.486 6.68182C137.395 6.43939 138.289 6.31818 139.168 6.31818C139.728 6.31818 140.372 6.38636 141.099 6.52273C141.834 6.65151 142.543 6.92045 143.224 7.32954C143.914 7.73864 144.486 8.35606 144.94 9.18182C145.395 10.0076 145.622 11.1136 145.622 12.5V24H142.94V21.6364H142.804C142.622 22.0152 142.319 22.4205 141.895 22.8523C141.471 23.2841 140.906 23.6515 140.202 23.9545C139.497 24.2576 138.637 24.4091 137.622 24.4091ZM138.031 22C139.092 22 139.986 21.7917 140.713 21.375C141.448 20.9583 142.001 20.4205 142.372 19.7614C142.751 19.1023 142.94 18.4091 142.94 17.6818V15.2273C142.827 15.3636 142.577 15.4886 142.19 15.6023C141.812 15.7083 141.372 15.803 140.872 15.8864C140.38 15.9621 139.899 16.0303 139.429 16.0909C138.967 16.1439 138.592 16.1894 138.304 16.2273C137.607 16.3182 136.955 16.4659 136.349 16.6705C135.751 16.8674 135.266 17.1667 134.895 17.5682C134.531 17.9621 134.349 18.5 134.349 19.1818C134.349 20.1136 134.694 20.8182 135.384 21.2955C136.08 21.7652 136.963 22 138.031 22ZM150.881 24V0.727272H153.562V9.31818H153.79C153.987 9.01515 154.259 8.62879 154.608 8.15909C154.964 7.68182 155.472 7.25758 156.131 6.88636C156.797 6.50758 157.699 6.31818 158.835 6.31818C160.305 6.31818 161.6 6.68561 162.722 7.42045C163.843 8.1553 164.718 9.19697 165.347 10.5455C165.975 11.8939 166.29 13.4848 166.29 15.3182C166.29 17.1667 165.975 18.7689 165.347 20.125C164.718 21.4735 163.847 22.5189 162.733 23.2614C161.619 23.9962 160.335 24.3636 158.881 24.3636C157.759 24.3636 156.862 24.178 156.188 23.8068C155.513 23.428 154.994 23 154.631 22.5227C154.267 22.0379 153.987 21.6364 153.79 21.3182H153.472V24H150.881ZM153.517 15.2727C153.517 16.5909 153.71 17.7538 154.097 18.7614C154.483 19.7614 155.047 20.5455 155.79 21.1136C156.532 21.6742 157.441 21.9545 158.517 21.9545C159.638 21.9545 160.574 21.6591 161.324 21.0682C162.081 20.4697 162.65 19.6667 163.028 18.6591C163.415 17.6439 163.608 16.5152 163.608 15.2727C163.608 14.0455 163.419 12.9394 163.04 11.9545C162.669 10.9621 162.104 10.178 161.347 9.60227C160.597 9.01894 159.653 8.72727 158.517 8.72727C157.426 8.72727 156.509 9.00379 155.767 9.55682C155.025 10.1023 154.464 10.8674 154.085 11.8523C153.706 12.8295 153.517 13.9697 153.517 15.2727ZM173.074 0.727272V24H170.392V0.727272H173.074ZM185.304 24.3636C183.622 24.3636 182.171 23.9924 180.952 23.25C179.74 22.5 178.804 21.4545 178.145 20.1136C177.493 18.7652 177.168 17.197 177.168 15.4091C177.168 13.6212 177.493 12.0455 178.145 10.6818C178.804 9.31061 179.721 8.24242 180.895 7.47727C182.077 6.70455 183.455 6.31818 185.031 6.31818C185.94 6.31818 186.838 6.4697 187.724 6.77273C188.611 7.07576 189.418 7.56818 190.145 8.25C190.872 8.92424 191.452 9.81818 191.884 10.9318C192.315 12.0455 192.531 13.4167 192.531 15.0455V16.1818H179.077V13.8636H189.804C189.804 12.8788 189.607 12 189.213 11.2273C188.827 10.4545 188.274 9.8447 187.554 9.39773C186.842 8.95076 186.001 8.72727 185.031 8.72727C183.963 8.72727 183.039 8.99242 182.259 9.52273C181.486 10.0455 180.891 10.7273 180.474 11.5682C180.058 12.4091 179.849 13.3106 179.849 14.2727V15.8182C179.849 17.1364 180.077 18.2538 180.531 19.1705C180.993 20.0795 181.634 20.7727 182.452 21.25C183.27 21.7197 184.221 21.9545 185.304 21.9545C186.009 21.9545 186.645 21.8561 187.213 21.6591C187.789 21.4545 188.285 21.1515 188.702 20.75C189.118 20.3409 189.44 19.8333 189.668 19.2273L192.259 19.9545C191.986 20.8333 191.527 21.6061 190.884 22.2727C190.24 22.9318 189.444 23.447 188.497 23.8182C187.55 24.1818 186.486 24.3636 185.304 24.3636ZM203.202 24.3636C201.747 24.3636 200.463 23.9962 199.349 23.2614C198.236 22.5189 197.365 21.4735 196.736 20.125C196.107 18.7689 195.793 17.1667 195.793 15.3182C195.793 13.4848 196.107 11.8939 196.736 10.5455C197.365 9.19697 198.24 8.1553 199.361 7.42045C200.482 6.68561 201.777 6.31818 203.247 6.31818C204.384 6.31818 205.281 6.50758 205.94 6.88636C206.607 7.25758 207.115 7.68182 207.463 8.15909C207.819 8.62879 208.096 9.01515 208.293 9.31818H208.52V0.727272H211.202V24H208.611V21.3182H208.293C208.096 21.6364 207.815 22.0379 207.452 22.5227C207.088 23 206.569 23.428 205.895 23.8068C205.221 24.178 204.323 24.3636 203.202 24.3636ZM203.565 21.9545C204.641 21.9545 205.55 21.6742 206.293 21.1136C207.035 20.5455 207.599 19.7614 207.986 18.7614C208.372 17.7538 208.565 16.5909 208.565 15.2727C208.565 13.9697 208.376 12.8295 207.997 11.8523C207.618 10.8674 207.058 10.1023 206.315 9.55682C205.573 9.00379 204.656 8.72727 203.565 8.72727C202.429 8.72727 201.482 9.01894 200.724 9.60227C199.974 10.178 199.41 10.9621 199.031 11.9545C198.66 12.9394 198.474 14.0455 198.474 15.2727C198.474 16.5152 198.664 17.6439 199.043 18.6591C199.429 19.6667 199.997 20.4697 200.747 21.0682C201.505 21.6591 202.444 21.9545 203.565 21.9545ZM244.304 0.727272V24H241.577L228.895 5.72727H228.668V24H225.849V0.727272H228.577L241.304 19.0455H241.531V0.727272H244.304ZM260.58 16.8636V6.54545H263.261V24H260.58V21.0455H260.398C259.989 21.9318 259.352 22.6856 258.489 23.3068C257.625 23.9205 256.534 24.2273 255.216 24.2273C254.125 24.2273 253.155 23.9886 252.307 23.5114C251.458 23.0265 250.792 22.2992 250.307 21.3295C249.822 20.3523 249.58 19.1212 249.58 17.6364V6.54545H252.261V17.4545C252.261 18.7273 252.617 19.7424 253.33 20.5C254.049 21.2576 254.966 21.6364 256.08 21.6364C256.746 21.6364 257.424 21.4659 258.114 21.125C258.811 20.7841 259.394 20.2614 259.864 19.5568C260.341 18.8523 260.58 17.9545 260.58 16.8636ZM275.764 6.54545V8.81818H266.719V6.54545H275.764ZM269.355 2.36364H272.037V19C272.037 19.7576 272.147 20.3258 272.366 20.7045C272.594 21.0758 272.882 21.3258 273.23 21.4545C273.586 21.5758 273.961 21.6364 274.355 21.6364C274.651 21.6364 274.893 21.6212 275.082 21.5909C275.272 21.553 275.423 21.5227 275.537 21.5L276.082 23.9091C275.901 23.9773 275.647 24.0455 275.321 24.1136C274.995 24.1894 274.582 24.2273 274.082 24.2273C273.325 24.2273 272.582 24.0644 271.855 23.7386C271.135 23.4129 270.537 22.9167 270.06 22.25C269.59 21.5833 269.355 20.7424 269.355 19.7273V2.36364ZM279.798 24V6.54545H282.389V9.18182H282.571C282.889 8.31818 283.465 7.61742 284.298 7.07954C285.132 6.54167 286.071 6.27273 287.116 6.27273C287.313 6.27273 287.56 6.27651 287.855 6.28409C288.151 6.29167 288.374 6.30303 288.526 6.31818V9.04545C288.435 9.02273 288.226 8.98864 287.901 8.94318C287.582 8.89015 287.245 8.86364 286.889 8.86364C286.041 8.86364 285.283 9.04167 284.616 9.39773C283.957 9.74621 283.435 10.2311 283.048 10.8523C282.67 11.4659 282.48 12.1667 282.48 12.9545V24H279.798ZM291.705 24V6.54545H294.386V24H291.705ZM293.068 3.63636C292.545 3.63636 292.095 3.45833 291.716 3.10227C291.345 2.74621 291.159 2.31818 291.159 1.81818C291.159 1.31818 291.345 0.890151 291.716 0.53409C292.095 0.17803 292.545 0 293.068 0C293.591 0 294.038 0.17803 294.409 0.53409C294.788 0.890151 294.977 1.31818 294.977 1.81818C294.977 2.31818 294.788 2.74621 294.409 3.10227C294.038 3.45833 293.591 3.63636 293.068 3.63636ZM306.889 6.54545V8.81818H297.844V6.54545H306.889ZM300.48 2.36364H303.162V19C303.162 19.7576 303.272 20.3258 303.491 20.7045C303.719 21.0758 304.007 21.3258 304.355 21.4545C304.711 21.5758 305.086 21.6364 305.48 21.6364C305.776 21.6364 306.018 21.6212 306.207 21.5909C306.397 21.553 306.548 21.5227 306.662 21.5L307.207 23.9091C307.026 23.9773 306.772 24.0455 306.446 24.1136C306.12 24.1894 305.707 24.2273 305.207 24.2273C304.45 24.2273 303.707 24.0644 302.98 23.7386C302.26 23.4129 301.662 22.9167 301.185 22.25C300.715 21.5833 300.48 20.7424 300.48 19.7273V2.36364ZM310.923 24V6.54545H313.605V24H310.923ZM312.287 3.63636C311.764 3.63636 311.313 3.45833 310.935 3.10227C310.563 2.74621 310.378 2.31818 310.378 1.81818C310.378 1.31818 310.563 0.890151 310.935 0.53409C311.313 0.17803 311.764 0 312.287 0C312.81 0 313.257 0.17803 313.628 0.53409C314.007 0.890151 314.196 1.31818 314.196 1.81818C314.196 2.31818 314.007 2.74621 313.628 3.10227C313.257 3.45833 312.81 3.63636 312.287 3.63636ZM325.608 24.3636C324.032 24.3636 322.65 23.9886 321.46 23.2386C320.278 22.4886 319.354 21.4394 318.688 20.0909C318.028 18.7424 317.699 17.1667 317.699 15.3636C317.699 13.5455 318.028 11.9583 318.688 10.6023C319.354 9.24621 320.278 8.19318 321.46 7.44318C322.65 6.69318 324.032 6.31818 325.608 6.31818C327.184 6.31818 328.563 6.69318 329.744 7.44318C330.934 8.19318 331.858 9.24621 332.517 10.6023C333.184 11.9583 333.517 13.5455 333.517 15.3636C333.517 17.1667 333.184 18.7424 332.517 20.0909C331.858 21.4394 330.934 22.4886 329.744 23.2386C328.563 23.9886 327.184 24.3636 325.608 24.3636ZM325.608 21.9545C326.805 21.9545 327.79 21.6477 328.562 21.0341C329.335 20.4205 329.907 19.6136 330.278 18.6136C330.65 17.6136 330.835 16.5303 330.835 15.3636C330.835 14.197 330.65 13.1098 330.278 12.1023C329.907 11.0947 329.335 10.2803 328.562 9.65909C327.79 9.03788 326.805 8.72727 325.608 8.72727C324.411 8.72727 323.426 9.03788 322.653 9.65909C321.881 10.2803 321.309 11.0947 320.938 12.1023C320.566 13.1098 320.381 14.197 320.381 15.3636C320.381 16.5303 320.566 17.6136 320.938 18.6136C321.309 19.6136 321.881 20.4205 322.653 21.0341C323.426 21.6477 324.411 21.9545 325.608 21.9545ZM340.293 13.5V24H337.611V6.54545H340.202V9.27273H340.429C340.838 8.38636 341.459 7.67424 342.293 7.13636C343.126 6.59091 344.202 6.31818 345.52 6.31818C346.702 6.31818 347.736 6.56061 348.622 7.04545C349.509 7.52273 350.198 8.25 350.69 9.22727C351.183 10.197 351.429 11.4242 351.429 12.9091V24H348.747V13.0909C348.747 11.7197 348.391 10.6515 347.679 9.88636C346.967 9.11364 345.99 8.72727 344.747 8.72727C343.891 8.72727 343.126 8.91288 342.452 9.28409C341.785 9.6553 341.259 10.197 340.872 10.9091C340.486 11.6212 340.293 12.4848 340.293 13.5ZM366.33 12.7727V15.2727H356.148V12.7727H366.33ZM381.366 24H378.412L386.957 0.727272H389.866L398.412 24H395.457L388.503 4.40909H388.321L381.366 24ZM382.457 14.9091H394.366V17.4091H382.457V14.9091ZM404.855 0.727272V24H402.037V0.727272H404.855ZM421.824 0.727272V24H419.142V0.727272H421.824ZM434.054 24.3636C432.372 24.3636 430.921 23.9924 429.702 23.25C428.49 22.5 427.554 21.4545 426.895 20.1136C426.243 18.7652 425.918 17.197 425.918 15.4091C425.918 13.6212 426.243 12.0455 426.895 10.6818C427.554 9.31061 428.471 8.24242 429.645 7.47727C430.827 6.70455 432.205 6.31818 433.781 6.31818C434.69 6.31818 435.588 6.4697 436.474 6.77273C437.361 7.07576 438.168 7.56818 438.895 8.25C439.622 8.92424 440.202 9.81818 440.634 10.9318C441.065 12.0455 441.281 13.4167 441.281 15.0455V16.1818H427.827V13.8636H438.554C438.554 12.8788 438.357 12 437.963 11.2273C437.577 10.4545 437.024 9.8447 436.304 9.39773C435.592 8.95076 434.751 8.72727 433.781 8.72727C432.713 8.72727 431.789 8.99242 431.009 9.52273C430.236 10.0455 429.641 10.7273 429.224 11.5682C428.808 12.4091 428.599 13.3106 428.599 14.2727V15.8182C428.599 17.1364 428.827 18.2538 429.281 19.1705C429.743 20.0795 430.384 20.7727 431.202 21.25C432.02 21.7197 432.971 21.9545 434.054 21.9545C434.759 21.9545 435.395 21.8561 435.963 21.6591C436.539 21.4545 437.035 21.1515 437.452 20.75C437.868 20.3409 438.19 19.8333 438.418 19.2273L441.009 19.9545C440.736 20.8333 440.277 21.6061 439.634 22.2727C438.99 22.9318 438.194 23.447 437.247 23.8182C436.3 24.1818 435.236 24.3636 434.054 24.3636ZM452.952 6.54545V8.81818H443.906V6.54545H452.952ZM446.543 2.36364H449.224V19C449.224 19.7576 449.334 20.3258 449.554 20.7045C449.781 21.0758 450.069 21.3258 450.418 21.4545C450.774 21.5758 451.149 21.6364 451.543 21.6364C451.838 21.6364 452.08 21.6212 452.27 21.5909C452.459 21.553 452.611 21.5227 452.724 21.5L453.27 23.9091C453.088 23.9773 452.834 24.0455 452.509 24.1136C452.183 24.1894 451.77 24.2273 451.27 24.2273C450.512 24.2273 449.77 24.0644 449.043 23.7386C448.323 23.4129 447.724 22.9167 447.247 22.25C446.777 21.5833 446.543 20.7424 446.543 19.7273V2.36364ZM469.037 10.4545L466.628 11.1364C466.476 10.7348 466.253 10.3447 465.957 9.96591C465.67 9.57955 465.276 9.26136 464.776 9.01136C464.276 8.76136 463.635 8.63636 462.855 8.63636C461.787 8.63636 460.897 8.88258 460.185 9.375C459.48 9.85985 459.128 10.4773 459.128 11.2273C459.128 11.8939 459.37 12.4205 459.855 12.8068C460.34 13.1932 461.098 13.5152 462.128 13.7727L464.719 14.4091C466.279 14.7879 467.442 15.3674 468.207 16.1477C468.973 16.9205 469.355 17.9167 469.355 19.1364C469.355 20.1364 469.067 21.0303 468.491 21.8182C467.923 22.6061 467.128 23.2273 466.105 23.6818C465.082 24.1364 463.893 24.3636 462.537 24.3636C460.757 24.3636 459.283 23.9773 458.116 23.2045C456.95 22.4318 456.211 21.303 455.901 19.8182L458.446 19.1818C458.688 20.1212 459.147 20.8258 459.821 21.2955C460.503 21.7652 461.393 22 462.491 22C463.741 22 464.734 21.7348 465.469 21.2045C466.211 20.6667 466.582 20.0227 466.582 19.2727C466.582 18.6667 466.37 18.1591 465.946 17.75C465.522 17.3333 464.87 17.0227 463.991 16.8182L461.082 16.1364C459.484 15.7576 458.31 15.1705 457.56 14.375C456.817 13.572 456.446 12.5682 456.446 11.3636C456.446 10.3788 456.723 9.50758 457.276 8.75C457.836 7.99242 458.598 7.39773 459.56 6.96591C460.529 6.53409 461.628 6.31818 462.855 6.31818C464.582 6.31818 465.938 6.69697 466.923 7.45454C467.916 8.21212 468.62 9.21212 469.037 10.4545ZM493.392 16.8636V6.54545H496.074V24H493.392V21.0455H493.21C492.801 21.9318 492.165 22.6856 491.301 23.3068C490.438 23.9205 489.347 24.2273 488.028 24.2273C486.938 24.2273 485.968 23.9886 485.119 23.5114C484.271 23.0265 483.604 22.2992 483.119 21.3295C482.634 20.3523 482.392 19.1212 482.392 17.6364V6.54545H485.074V17.4545C485.074 18.7273 485.43 19.7424 486.142 20.5C486.862 21.2576 487.778 21.6364 488.892 21.6364C489.559 21.6364 490.237 21.4659 490.926 21.125C491.623 20.7841 492.206 20.2614 492.676 19.5568C493.153 18.8523 493.392 17.9545 493.392 16.8636ZM513.349 10.4545L510.94 11.1364C510.789 10.7348 510.565 10.3447 510.27 9.96591C509.982 9.57955 509.588 9.26136 509.088 9.01136C508.588 8.76136 507.948 8.63636 507.168 8.63636C506.099 8.63636 505.209 8.88258 504.497 9.375C503.793 9.85985 503.44 10.4773 503.44 11.2273C503.44 11.8939 503.683 12.4205 504.168 12.8068C504.652 13.1932 505.41 13.5152 506.44 13.7727L509.031 14.4091C510.592 14.7879 511.755 15.3674 512.52 16.1477C513.285 16.9205 513.668 17.9167 513.668 19.1364C513.668 20.1364 513.38 21.0303 512.804 21.8182C512.236 22.6061 511.44 23.2273 510.418 23.6818C509.395 24.1364 508.205 24.3636 506.849 24.3636C505.069 24.3636 503.596 23.9773 502.429 23.2045C501.262 22.4318 500.524 21.303 500.213 19.8182L502.759 19.1818C503.001 20.1212 503.459 20.8258 504.134 21.2955C504.815 21.7652 505.705 22 506.804 22C508.054 22 509.046 21.7348 509.781 21.2045C510.524 20.6667 510.895 20.0227 510.895 19.2727C510.895 18.6667 510.683 18.1591 510.259 17.75C509.834 17.3333 509.183 17.0227 508.304 16.8182L505.395 16.1364C503.796 15.7576 502.622 15.1705 501.872 14.375C501.13 13.572 500.759 12.5682 500.759 11.3636C500.759 10.3788 501.035 9.50758 501.588 8.75C502.149 7.99242 502.91 7.39773 503.872 6.96591C504.842 6.53409 505.94 6.31818 507.168 6.31818C508.895 6.31818 510.251 6.69697 511.236 7.45454C512.228 8.21212 512.933 9.21212 513.349 10.4545ZM525.023 24.3636C523.341 24.3636 521.89 23.9924 520.67 23.25C519.458 22.5 518.523 21.4545 517.864 20.1136C517.212 18.7652 516.886 17.197 516.886 15.4091C516.886 13.6212 517.212 12.0455 517.864 10.6818C518.523 9.31061 519.439 8.24242 520.614 7.47727C521.795 6.70455 523.174 6.31818 524.75 6.31818C525.659 6.31818 526.557 6.4697 527.443 6.77273C528.33 7.07576 529.136 7.56818 529.864 8.25C530.591 8.92424 531.17 9.81818 531.602 10.9318C532.034 12.0455 532.25 13.4167 532.25 15.0455V16.1818H518.795V13.8636H529.523C529.523 12.8788 529.326 12 528.932 11.2273C528.545 10.4545 527.992 9.8447 527.273 9.39773C526.561 8.95076 525.72 8.72727 524.75 8.72727C523.682 8.72727 522.758 8.99242 521.977 9.52273C521.205 10.0455 520.61 10.7273 520.193 11.5682C519.777 12.4091 519.568 13.3106 519.568 14.2727V15.8182C519.568 17.1364 519.795 18.2538 520.25 19.1705C520.712 20.0795 521.352 20.7727 522.17 21.25C522.989 21.7197 523.939 21.9545 525.023 21.9545C525.727 21.9545 526.364 21.8561 526.932 21.6591C527.508 21.4545 528.004 21.1515 528.42 20.75C528.837 20.3409 529.159 19.8333 529.386 19.2273L531.977 19.9545C531.705 20.8333 531.246 21.6061 530.602 22.2727C529.958 22.9318 529.163 23.447 528.216 23.8182C527.269 24.1818 526.205 24.3636 525.023 24.3636ZM536.33 24V6.54545H538.92V9.18182H539.102C539.42 8.31818 539.996 7.61742 540.83 7.07954C541.663 6.54167 542.602 6.27273 543.648 6.27273C543.845 6.27273 544.091 6.27651 544.386 6.28409C544.682 6.29167 544.905 6.30303 545.057 6.31818V9.04545C544.966 9.02273 544.758 8.98864 544.432 8.94318C544.114 8.89015 543.777 8.86364 543.42 8.86364C542.572 8.86364 541.814 9.04167 541.148 9.39773C540.489 9.74621 539.966 10.2311 539.58 10.8523C539.201 11.4659 539.011 12.1667 539.011 12.9545V24H536.33ZM560.599 10.4545L558.19 11.1364C558.039 10.7348 557.815 10.3447 557.52 9.96591C557.232 9.57955 556.838 9.26136 556.338 9.01136C555.838 8.76136 555.198 8.63636 554.418 8.63636C553.349 8.63636 552.459 8.88258 551.747 9.375C551.043 9.85985 550.69 10.4773 550.69 11.2273C550.69 11.8939 550.933 12.4205 551.418 12.8068C551.902 13.1932 552.66 13.5152 553.69 13.7727L556.281 14.4091C557.842 14.7879 559.005 15.3674 559.77 16.1477C560.535 16.9205 560.918 17.9167 560.918 19.1364C560.918 20.1364 560.63 21.0303 560.054 21.8182C559.486 22.6061 558.69 23.2273 557.668 23.6818C556.645 24.1364 555.455 24.3636 554.099 24.3636C552.319 24.3636 550.846 23.9773 549.679 23.2045C548.512 22.4318 547.774 21.303 547.463 19.8182L550.009 19.1818C550.251 20.1212 550.709 20.8258 551.384 21.2955C552.065 21.7652 552.955 22 554.054 22C555.304 22 556.296 21.7348 557.031 21.2045C557.774 20.6667 558.145 20.0227 558.145 19.2727C558.145 18.6667 557.933 18.1591 557.509 17.75C557.084 17.3333 556.433 17.0227 555.554 16.8182L552.645 16.1364C551.046 15.7576 549.872 15.1705 549.122 14.375C548.38 13.572 548.009 12.5682 548.009 11.3636C548.009 10.3788 548.285 9.50758 548.838 8.75C549.399 7.99242 550.16 7.39773 551.122 6.96591C552.092 6.53409 553.19 6.31818 554.418 6.31818C556.145 6.31818 557.501 6.69697 558.486 7.45454C559.478 8.21212 560.183 9.21212 560.599 10.4545ZM7.59091 63.4091C6.48485 63.4091 5.48106 63.2008 4.57955 62.7841C3.67803 62.3598 2.96212 61.75 2.43182 60.9545C1.90152 60.1515 1.63636 59.1818 1.63636 58.0455C1.63636 57.0455 1.83333 56.2348 2.22727 55.6136C2.62121 54.9848 3.14773 54.4924 3.80682 54.1364C4.46591 53.7803 5.19318 53.5152 5.98864 53.3409C6.79167 53.1591 7.59848 53.0152 8.40909 52.9091C9.4697 52.7727 10.3295 52.6705 10.9886 52.6023C11.6553 52.5265 12.1402 52.4015 12.4432 52.2273C12.7538 52.053 12.9091 51.75 12.9091 51.3182V51.2273C12.9091 50.1061 12.6023 49.2348 11.9886 48.6136C11.3826 47.9924 10.4621 47.6818 9.22727 47.6818C7.94697 47.6818 6.94318 47.9621 6.21591 48.5227C5.48864 49.0833 4.97727 49.6818 4.68182 50.3182L2.13636 49.4091C2.59091 48.3485 3.19697 47.5227 3.95455 46.9318C4.7197 46.3333 5.55303 45.9167 6.45455 45.6818C7.36364 45.4394 8.25758 45.3182 9.13636 45.3182C9.69697 45.3182 10.3409 45.3864 11.0682 45.5227C11.803 45.6515 12.5114 45.9205 13.1932 46.3295C13.8826 46.7386 14.4545 47.3561 14.9091 48.1818C15.3636 49.0076 15.5909 50.1136 15.5909 51.5V63H12.9091V60.6364H12.7727C12.5909 61.0152 12.2879 61.4205 11.8636 61.8523C11.4394 62.2841 10.875 62.6515 10.1705 62.9545C9.46591 63.2576 8.60606 63.4091 7.59091 63.4091ZM8 61C9.06061 61 9.95455 60.7917 10.6818 60.375C11.4167 59.9583 11.9697 59.4205 12.3409 58.7614C12.7197 58.1023 12.9091 57.4091 12.9091 56.6818V54.2273C12.7955 54.3636 12.5455 54.4886 12.1591 54.6023C11.7803 54.7083 11.3409 54.803 10.8409 54.8864C10.3485 54.9621 9.86742 55.0303 9.39773 55.0909C8.93561 55.1439 8.56061 55.1894 8.27273 55.2273C7.57576 55.3182 6.92424 55.4659 6.31818 55.6705C5.7197 55.8674 5.23485 56.1667 4.86364 56.5682C4.5 56.9621 4.31818 57.5 4.31818 58.1818C4.31818 59.1136 4.66288 59.8182 5.35227 60.2955C6.04924 60.7652 6.93182 61 8 61ZM27.0767 63.3636C25.6222 63.3636 24.3381 62.9962 23.2244 62.2614C22.1108 61.5189 21.2396 60.4735 20.6108 59.125C19.982 57.7689 19.6676 56.1667 19.6676 54.3182C19.6676 52.4848 19.982 50.8939 20.6108 49.5455C21.2396 48.197 22.1146 47.1553 23.2358 46.4205C24.357 45.6856 25.6525 45.3182 27.1222 45.3182C28.2585 45.3182 29.1563 45.5076 29.8153 45.8864C30.482 46.2576 30.9896 46.6818 31.3381 47.1591C31.6941 47.6288 31.9706 48.0152 32.1676 48.3182H32.3949V39.7273H35.0767V63H32.4858V60.3182H32.1676C31.9706 60.6364 31.6903 61.0379 31.3267 61.5227C30.9631 62 30.4441 62.428 29.7699 62.8068C29.0956 63.178 28.1979 63.3636 27.0767 63.3636ZM27.4403 60.9545C28.5161 60.9545 29.4252 60.6742 30.1676 60.1136C30.91 59.5455 31.4744 58.7614 31.8608 57.7614C32.2472 56.7538 32.4403 55.5909 32.4403 54.2727C32.4403 52.9697 32.2509 51.8295 31.8722 50.8523C31.4934 49.8674 30.9328 49.1023 30.1903 48.5568C29.4479 48.0038 28.5313 47.7273 27.4403 47.7273C26.304 47.7273 25.357 48.0189 24.5994 48.6023C23.8494 49.178 23.285 49.9621 22.9062 50.9545C22.535 51.9394 22.3494 53.0455 22.3494 54.2727C22.3494 55.5152 22.5388 56.6439 22.9176 57.6591C23.304 58.6667 23.8722 59.4697 24.6222 60.0682C25.3797 60.6591 26.3191 60.9545 27.4403 60.9545ZM46.9517 63.3636C45.4972 63.3636 44.2131 62.9962 43.0994 62.2614C41.9858 61.5189 41.1146 60.4735 40.4858 59.125C39.857 57.7689 39.5426 56.1667 39.5426 54.3182C39.5426 52.4848 39.857 50.8939 40.4858 49.5455C41.1146 48.197 41.9896 47.1553 43.1108 46.4205C44.232 45.6856 45.5275 45.3182 46.9972 45.3182C48.1335 45.3182 49.0313 45.5076 49.6903 45.8864C50.357 46.2576 50.8646 46.6818 51.2131 47.1591C51.5691 47.6288 51.8456 48.0152 52.0426 48.3182H52.2699V39.7273H54.9517V63H52.3608V60.3182H52.0426C51.8456 60.6364 51.5653 61.0379 51.2017 61.5227C50.8381 62 50.3191 62.428 49.6449 62.8068C48.9706 63.178 48.0729 63.3636 46.9517 63.3636ZM47.3153 60.9545C48.3911 60.9545 49.3002 60.6742 50.0426 60.1136C50.785 59.5455 51.3494 58.7614 51.7358 57.7614C52.1222 56.7538 52.3153 55.5909 52.3153 54.2727C52.3153 52.9697 52.1259 51.8295 51.7472 50.8523C51.3684 49.8674 50.8078 49.1023 50.0653 48.5568C49.3229 48.0038 48.4063 47.7273 47.3153 47.7273C46.179 47.7273 45.232 48.0189 44.4744 48.6023C43.7244 49.178 43.16 49.9621 42.7812 50.9545C42.41 51.9394 42.2244 53.0455 42.2244 54.2727C42.2244 55.5152 42.4138 56.6439 42.7926 57.6591C43.179 58.6667 43.7472 59.4697 44.4972 60.0682C45.2547 60.6591 46.1941 60.9545 47.3153 60.9545ZM77.0085 45.5455V47.8182H67.5994V45.5455H77.0085ZM70.4176 63V43.1364C70.4176 42.1364 70.6525 41.303 71.1222 40.6364C71.5919 39.9697 72.2017 39.4697 72.9517 39.1364C73.7017 38.803 74.4934 38.6364 75.3267 38.6364C75.9858 38.6364 76.5237 38.6894 76.9403 38.7955C77.357 38.9015 77.6676 39 77.8722 39.0909L77.0994 41.4091C76.9631 41.3636 76.7737 41.3068 76.5312 41.2386C76.2964 41.1705 75.9858 41.1364 75.5994 41.1364C74.7131 41.1364 74.0729 41.3598 73.679 41.8068C73.2926 42.2538 73.0994 42.9091 73.0994 43.7727V63H70.4176ZM87.1392 63.3636C85.5634 63.3636 84.1809 62.9886 82.9915 62.2386C81.8097 61.4886 80.8854 60.4394 80.2188 59.0909C79.5597 57.7424 79.2301 56.1667 79.2301 54.3636C79.2301 52.5455 79.5597 50.9583 80.2188 49.6023C80.8854 48.2462 81.8097 47.1932 82.9915 46.4432C84.1809 45.6932 85.5634 45.3182 87.1392 45.3182C88.715 45.3182 90.0938 45.6932 91.2756 46.4432C92.465 47.1932 93.3892 48.2462 94.0483 49.6023C94.715 50.9583 95.0483 52.5455 95.0483 54.3636C95.0483 56.1667 94.715 57.7424 94.0483 59.0909C93.3892 60.4394 92.465 61.4886 91.2756 62.2386C90.0938 62.9886 88.715 63.3636 87.1392 63.3636ZM87.1392 60.9545C88.3362 60.9545 89.321 60.6477 90.0938 60.0341C90.8665 59.4205 91.4384 58.6136 91.8097 57.6136C92.1809 56.6136 92.3665 55.5303 92.3665 54.3636C92.3665 53.197 92.1809 52.1098 91.8097 51.1023C91.4384 50.0947 90.8665 49.2803 90.0938 48.6591C89.321 48.0379 88.3362 47.7273 87.1392 47.7273C85.9422 47.7273 84.9574 48.0379 84.1847 48.6591C83.4119 49.2803 82.84 50.0947 82.4688 51.1023C82.0975 52.1098 81.9119 53.197 81.9119 54.3636C81.9119 55.5303 82.0975 56.6136 82.4688 57.6136C82.84 58.6136 83.4119 59.4205 84.1847 60.0341C84.9574 60.6477 85.9422 60.9545 87.1392 60.9545ZM106.233 63.3636C104.657 63.3636 103.275 62.9886 102.085 62.2386C100.903 61.4886 99.9792 60.4394 99.3125 59.0909C98.6534 57.7424 98.3239 56.1667 98.3239 54.3636C98.3239 52.5455 98.6534 50.9583 99.3125 49.6023C99.9792 48.2462 100.903 47.1932 102.085 46.4432C103.275 45.6932 104.657 45.3182 106.233 45.3182C107.809 45.3182 109.188 45.6932 110.369 46.4432C111.559 47.1932 112.483 48.2462 113.142 49.6023C113.809 50.9583 114.142 52.5455 114.142 54.3636C114.142 56.1667 113.809 57.7424 113.142 59.0909C112.483 60.4394 111.559 61.4886 110.369 62.2386C109.188 62.9886 107.809 63.3636 106.233 63.3636ZM106.233 60.9545C107.43 60.9545 108.415 60.6477 109.188 60.0341C109.96 59.4205 110.532 58.6136 110.903 57.6136C111.275 56.6136 111.46 55.5303 111.46 54.3636C111.46 53.197 111.275 52.1098 110.903 51.1023C110.532 50.0947 109.96 49.2803 109.188 48.6591C108.415 48.0379 107.43 47.7273 106.233 47.7273C105.036 47.7273 104.051 48.0379 103.278 48.6591C102.506 49.2803 101.934 50.0947 101.562 51.1023C101.191 52.1098 101.006 53.197 101.006 54.3636C101.006 55.5303 101.191 56.6136 101.562 57.6136C101.934 58.6136 102.506 59.4205 103.278 60.0341C104.051 60.6477 105.036 60.9545 106.233 60.9545ZM124.827 63.3636C123.372 63.3636 122.088 62.9962 120.974 62.2614C119.861 61.5189 118.99 60.4735 118.361 59.125C117.732 57.7689 117.418 56.1667 117.418 54.3182C117.418 52.4848 117.732 50.8939 118.361 49.5455C118.99 48.197 119.865 47.1553 120.986 46.4205C122.107 45.6856 123.402 45.3182 124.872 45.3182C126.009 45.3182 126.906 45.5076 127.565 45.8864C128.232 46.2576 128.74 46.6818 129.088 47.1591C129.444 47.6288 129.721 48.0152 129.918 48.3182H130.145V39.7273H132.827V63H130.236V60.3182H129.918C129.721 60.6364 129.44 61.0379 129.077 61.5227C128.713 62 128.194 62.428 127.52 62.8068C126.846 63.178 125.948 63.3636 124.827 63.3636ZM125.19 60.9545C126.266 60.9545 127.175 60.6742 127.918 60.1136C128.66 59.5455 129.224 58.7614 129.611 57.7614C129.997 56.7538 130.19 55.5909 130.19 54.2727C130.19 52.9697 130.001 51.8295 129.622 50.8523C129.243 49.8674 128.683 49.1023 127.94 48.5568C127.198 48.0038 126.281 47.7273 125.19 47.7273C124.054 47.7273 123.107 48.0189 122.349 48.6023C121.599 49.178 121.035 49.9621 120.656 50.9545C120.285 51.9394 120.099 53.0455 120.099 54.2727C120.099 55.5152 120.289 56.6439 120.668 57.6591C121.054 58.6667 121.622 59.4697 122.372 60.0682C123.13 60.6591 124.069 60.9545 125.19 60.9545ZM147.111 63V45.5455H149.793V63H147.111ZM148.474 42.6364C147.952 42.6364 147.501 42.4583 147.122 42.1023C146.751 41.7462 146.565 41.3182 146.565 40.8182C146.565 40.3182 146.751 39.8902 147.122 39.5341C147.501 39.178 147.952 39 148.474 39C148.997 39 149.444 39.178 149.815 39.5341C150.194 39.8902 150.384 40.3182 150.384 40.8182C150.384 41.3182 150.194 41.7462 149.815 42.1023C149.444 42.4583 148.997 42.6364 148.474 42.6364ZM157.386 52.5V63H154.705V45.5455H157.295V48.2727H157.523C157.932 47.3864 158.553 46.6742 159.386 46.1364C160.22 45.5909 161.295 45.3182 162.614 45.3182C163.795 45.3182 164.83 45.5606 165.716 46.0455C166.602 46.5227 167.292 47.25 167.784 48.2273C168.277 49.197 168.523 50.4242 168.523 51.9091V63H165.841V52.0909C165.841 50.7197 165.485 49.6515 164.773 48.8864C164.061 48.1136 163.083 47.7273 161.841 47.7273C160.985 47.7273 160.22 47.9129 159.545 48.2841C158.879 48.6553 158.352 49.197 157.966 49.9091C157.58 50.6212 157.386 51.4848 157.386 52.5ZM190.014 45.5455V47.8182H180.969V45.5455H190.014ZM183.605 41.3636H186.287V58C186.287 58.7576 186.397 59.3258 186.616 59.7045C186.844 60.0758 187.132 60.3258 187.48 60.4545C187.836 60.5758 188.211 60.6364 188.605 60.6364C188.901 60.6364 189.143 60.6212 189.332 60.5909C189.522 60.553 189.673 60.5227 189.787 60.5L190.332 62.9091C190.151 62.9773 189.897 63.0455 189.571 63.1136C189.245 63.1894 188.832 63.2273 188.332 63.2273C187.575 63.2273 186.832 63.0644 186.105 62.7386C185.385 62.4129 184.787 61.9167 184.31 61.25C183.84 60.5833 183.605 59.7424 183.605 58.7273V41.3636ZM197.105 52.5V63H194.423V39.7273H197.105V48.2727H197.332C197.741 47.3712 198.355 46.6553 199.173 46.125C199.999 45.5871 201.098 45.3182 202.469 45.3182C203.658 45.3182 204.7 45.5568 205.594 46.0341C206.488 46.5038 207.181 47.2273 207.673 48.2045C208.173 49.1742 208.423 50.4091 208.423 51.9091V63H205.741V52.0909C205.741 50.7045 205.382 49.6326 204.662 48.875C203.95 48.1098 202.961 47.7273 201.696 47.7273C200.817 47.7273 200.029 47.9129 199.332 48.2841C198.643 48.6553 198.098 49.197 197.696 49.9091C197.302 50.6212 197.105 51.4848 197.105 52.5ZM220.648 63.3636C218.966 63.3636 217.515 62.9924 216.295 62.25C215.083 61.5 214.148 60.4545 213.489 59.1136C212.837 57.7652 212.511 56.197 212.511 54.4091C212.511 52.6212 212.837 51.0455 213.489 49.6818C214.148 48.3106 215.064 47.2424 216.239 46.4773C217.42 45.7045 218.799 45.3182 220.375 45.3182C221.284 45.3182 222.182 45.4697 223.068 45.7727C223.955 46.0758 224.761 46.5682 225.489 47.25C226.216 47.9242 226.795 48.8182 227.227 49.9318C227.659 51.0455 227.875 52.4167 227.875 54.0455V55.1818H214.42V52.8636H225.148C225.148 51.8788 224.951 51 224.557 50.2273C224.17 49.4545 223.617 48.8447 222.898 48.3977C222.186 47.9508 221.345 47.7273 220.375 47.7273C219.307 47.7273 218.383 47.9924 217.602 48.5227C216.83 49.0455 216.235 49.7273 215.818 50.5682C215.402 51.4091 215.193 52.3106 215.193 53.2727V54.8182C215.193 56.1364 215.42 57.2538 215.875 58.1705C216.337 59.0795 216.977 59.7727 217.795 60.25C218.614 60.7197 219.564 60.9545 220.648 60.9545C221.352 60.9545 221.989 60.8561 222.557 60.6591C223.133 60.4545 223.629 60.1515 224.045 59.75C224.462 59.3409 224.784 58.8333 225.011 58.2273L227.602 58.9545C227.33 59.8333 226.871 60.6061 226.227 61.2727C225.583 61.9318 224.788 62.447 223.841 62.8182C222.894 63.1818 221.83 63.3636 220.648 63.3636ZM253.318 49.4545L250.909 50.1364C250.758 49.7348 250.534 49.3447 250.239 48.9659C249.951 48.5795 249.557 48.2614 249.057 48.0114C248.557 47.7614 247.917 47.6364 247.136 47.6364C246.068 47.6364 245.178 47.8826 244.466 48.375C243.761 48.8598 243.409 49.4773 243.409 50.2273C243.409 50.8939 243.652 51.4205 244.136 51.8068C244.621 52.1932 245.379 52.5152 246.409 52.7727L249 53.4091C250.561 53.7879 251.723 54.3674 252.489 55.1477C253.254 55.9205 253.636 56.9167 253.636 58.1364C253.636 59.1364 253.348 60.0303 252.773 60.8182C252.205 61.6061 251.409 62.2273 250.386 62.6818C249.364 63.1364 248.174 63.3636 246.818 63.3636C245.038 63.3636 243.564 62.9773 242.398 62.2045C241.231 61.4318 240.492 60.303 240.182 58.8182L242.727 58.1818C242.97 59.1212 243.428 59.8258 244.102 60.2955C244.784 60.7652 245.674 61 246.773 61C248.023 61 249.015 60.7348 249.75 60.2045C250.492 59.6667 250.864 59.0227 250.864 58.2727C250.864 57.6667 250.652 57.1591 250.227 56.75C249.803 56.3333 249.152 56.0227 248.273 55.8182L245.364 55.1364C243.765 54.7576 242.591 54.1705 241.841 53.375C241.098 52.572 240.727 51.5682 240.727 50.3636C240.727 49.3788 241.004 48.5076 241.557 47.75C242.117 46.9924 242.879 46.3977 243.841 45.9659C244.811 45.5341 245.909 45.3182 247.136 45.3182C248.864 45.3182 250.22 45.697 251.205 46.4545C252.197 47.2121 252.902 48.2121 253.318 49.4545ZM257.673 63V45.5455H260.355V63H257.673ZM259.037 42.6364C258.514 42.6364 258.063 42.4583 257.685 42.1023C257.313 41.7462 257.128 41.3182 257.128 40.8182C257.128 40.3182 257.313 39.8902 257.685 39.5341C258.063 39.178 258.514 39 259.037 39C259.56 39 260.007 39.178 260.378 39.5341C260.757 39.8902 260.946 40.3182 260.946 40.8182C260.946 41.3182 260.757 41.7462 260.378 42.1023C260.007 42.4583 259.56 42.6364 259.037 42.6364ZM265.267 63V45.5455H267.858V48.2727H268.085C268.449 47.3409 269.036 46.6174 269.847 46.1023C270.657 45.5795 271.631 45.3182 272.767 45.3182C273.919 45.3182 274.877 45.5795 275.642 46.1023C276.415 46.6174 277.017 47.3409 277.449 48.2727H277.631C278.078 47.3712 278.748 46.6553 279.642 46.125C280.536 45.5871 281.608 45.3182 282.858 45.3182C284.419 45.3182 285.695 45.8068 286.688 46.7841C287.68 47.7538 288.176 49.2652 288.176 51.3182V63H285.494V51.3182C285.494 50.0303 285.142 49.1098 284.438 48.5568C283.733 48.0038 282.903 47.7273 281.949 47.7273C280.722 47.7273 279.771 48.0985 279.097 48.8409C278.422 49.5758 278.085 50.5076 278.085 51.6364V63H275.358V51.0455C275.358 50.053 275.036 49.2538 274.392 48.6477C273.748 48.0341 272.919 47.7273 271.903 47.7273C271.206 47.7273 270.555 47.9129 269.949 48.2841C269.35 48.6553 268.866 49.1705 268.494 49.8295C268.131 50.4811 267.949 51.2348 267.949 52.0909V63H265.267ZM293.08 69.5455V45.5455H295.67V48.3182H295.989C296.186 48.0152 296.458 47.6288 296.807 47.1591C297.163 46.6818 297.67 46.2576 298.33 45.8864C298.996 45.5076 299.898 45.3182 301.034 45.3182C302.504 45.3182 303.799 45.6856 304.92 46.4205C306.042 47.1553 306.917 48.197 307.545 49.5455C308.174 50.8939 308.489 52.4848 308.489 54.3182C308.489 56.1667 308.174 57.7689 307.545 59.125C306.917 60.4735 306.045 61.5189 304.932 62.2614C303.818 62.9962 302.534 63.3636 301.08 63.3636C299.958 63.3636 299.061 63.178 298.386 62.8068C297.712 62.428 297.193 62 296.83 61.5227C296.466 61.0379 296.186 60.6364 295.989 60.3182H295.761V69.5455H293.08ZM295.716 54.2727C295.716 55.5909 295.909 56.7538 296.295 57.7614C296.682 58.7614 297.246 59.5455 297.989 60.1136C298.731 60.6742 299.64 60.9545 300.716 60.9545C301.837 60.9545 302.773 60.6591 303.523 60.0682C304.28 59.4697 304.848 58.6667 305.227 57.6591C305.614 56.6439 305.807 55.5152 305.807 54.2727C305.807 53.0455 305.617 51.9394 305.239 50.9545C304.867 49.9621 304.303 49.178 303.545 48.6023C302.795 48.0189 301.852 47.7273 300.716 47.7273C299.625 47.7273 298.708 48.0038 297.966 48.5568C297.223 49.1023 296.663 49.8674 296.284 50.8523C295.905 51.8295 295.716 52.9697 295.716 54.2727ZM315.261 39.7273V63H312.58V39.7273H315.261ZM327.491 63.3636C325.81 63.3636 324.359 62.9924 323.139 62.25C321.927 61.5 320.991 60.4545 320.332 59.1136C319.681 57.7652 319.355 56.197 319.355 54.4091C319.355 52.6212 319.681 51.0455 320.332 49.6818C320.991 48.3106 321.908 47.2424 323.082 46.4773C324.264 45.7045 325.643 45.3182 327.219 45.3182C328.128 45.3182 329.026 45.4697 329.912 45.7727C330.798 46.0758 331.605 46.5682 332.332 47.25C333.06 47.9242 333.639 48.8182 334.071 49.9318C334.503 51.0455 334.719 52.4167 334.719 54.0455V55.1818H321.264V52.8636H331.991C331.991 51.8788 331.795 51 331.401 50.2273C331.014 49.4545 330.461 48.8447 329.741 48.3977C329.029 47.9508 328.188 47.7273 327.219 47.7273C326.151 47.7273 325.226 47.9924 324.446 48.5227C323.673 49.0455 323.079 49.7273 322.662 50.5682C322.245 51.4091 322.037 52.3106 322.037 53.2727V54.8182C322.037 56.1364 322.264 57.2538 322.719 58.1705C323.181 59.0795 323.821 59.7727 324.639 60.25C325.457 60.7197 326.408 60.9545 327.491 60.9545C328.196 60.9545 328.832 60.8561 329.401 60.6591C329.976 60.4545 330.473 60.1515 330.889 59.75C331.306 59.3409 331.628 58.8333 331.855 58.2273L334.446 58.9545C334.173 59.8333 333.715 60.6061 333.071 61.2727C332.427 61.9318 331.632 62.447 330.685 62.8182C329.738 63.1818 328.673 63.3636 327.491 63.3636ZM351.162 49.4545L348.753 50.1364C348.601 49.7348 348.378 49.3447 348.082 48.9659C347.795 48.5795 347.401 48.2614 346.901 48.0114C346.401 47.7614 345.76 47.6364 344.98 47.6364C343.912 47.6364 343.022 47.8826 342.31 48.375C341.605 48.8598 341.253 49.4773 341.253 50.2273C341.253 50.8939 341.495 51.4205 341.98 51.8068C342.465 52.1932 343.223 52.5152 344.253 52.7727L346.844 53.4091C348.404 53.7879 349.567 54.3674 350.332 55.1477C351.098 55.9205 351.48 56.9167 351.48 58.1364C351.48 59.1364 351.192 60.0303 350.616 60.8182C350.048 61.6061 349.253 62.2273 348.23 62.6818C347.207 63.1364 346.018 63.3636 344.662 63.3636C342.882 63.3636 341.408 62.9773 340.241 62.2045C339.075 61.4318 338.336 60.303 338.026 58.8182L340.571 58.1818C340.813 59.1212 341.272 59.8258 341.946 60.2955C342.628 60.7652 343.518 61 344.616 61C345.866 61 346.859 60.7348 347.594 60.2045C348.336 59.6667 348.707 59.0227 348.707 58.2727C348.707 57.6667 348.495 57.1591 348.071 56.75C347.647 56.3333 346.995 56.0227 346.116 55.8182L343.207 55.1364C341.609 54.7576 340.435 54.1705 339.685 53.375C338.942 52.572 338.571 51.5682 338.571 50.3636C338.571 49.3788 338.848 48.5076 339.401 47.75C339.961 46.9924 340.723 46.3977 341.685 45.9659C342.654 45.5341 343.753 45.3182 344.98 45.3182C346.707 45.3182 348.063 45.697 349.048 46.4545C350.041 47.2121 350.745 48.2121 351.162 49.4545ZM363.108 45.5455V47.8182H354.062V45.5455H363.108ZM356.699 41.3636H359.381V58C359.381 58.7576 359.491 59.3258 359.71 59.7045C359.938 60.0758 360.225 60.3258 360.574 60.4545C360.93 60.5758 361.305 60.6364 361.699 60.6364C361.994 60.6364 362.237 60.6212 362.426 60.5909C362.616 60.553 362.767 60.5227 362.881 60.5L363.426 62.9091C363.244 62.9773 362.991 63.0455 362.665 63.1136C362.339 63.1894 361.926 63.2273 361.426 63.2273C360.669 63.2273 359.926 63.0644 359.199 62.7386C358.479 62.4129 357.881 61.9167 357.403 61.25C356.934 60.5833 356.699 59.7424 356.699 58.7273V41.3636ZM383.233 63.3636C381.657 63.3636 380.275 62.9886 379.085 62.2386C377.903 61.4886 376.979 60.4394 376.312 59.0909C375.653 57.7424 375.324 56.1667 375.324 54.3636C375.324 52.5455 375.653 50.9583 376.312 49.6023C376.979 48.2462 377.903 47.1932 379.085 46.4432C380.275 45.6932 381.657 45.3182 383.233 45.3182C384.809 45.3182 386.188 45.6932 387.369 46.4432C388.559 47.1932 389.483 48.2462 390.142 49.6023C390.809 50.9583 391.142 52.5455 391.142 54.3636C391.142 56.1667 390.809 57.7424 390.142 59.0909C389.483 60.4394 388.559 61.4886 387.369 62.2386C386.188 62.9886 384.809 63.3636 383.233 63.3636ZM383.233 60.9545C384.43 60.9545 385.415 60.6477 386.188 60.0341C386.96 59.4205 387.532 58.6136 387.903 57.6136C388.275 56.6136 388.46 55.5303 388.46 54.3636C388.46 53.197 388.275 52.1098 387.903 51.1023C387.532 50.0947 386.96 49.2803 386.188 48.6591C385.415 48.0379 384.43 47.7273 383.233 47.7273C382.036 47.7273 381.051 48.0379 380.278 48.6591C379.506 49.2803 378.934 50.0947 378.562 51.1023C378.191 52.1098 378.006 53.197 378.006 54.3636C378.006 55.5303 378.191 56.6136 378.562 57.6136C378.934 58.6136 379.506 59.4205 380.278 60.0341C381.051 60.6477 382.036 60.9545 383.233 60.9545ZM403.009 45.5455V47.8182H393.599V45.5455H403.009ZM396.418 63V43.1364C396.418 42.1364 396.652 41.303 397.122 40.6364C397.592 39.9697 398.202 39.4697 398.952 39.1364C399.702 38.803 400.493 38.6364 401.327 38.6364C401.986 38.6364 402.524 38.6894 402.94 38.7955C403.357 38.9015 403.668 39 403.872 39.0909L403.099 41.4091C402.963 41.3636 402.774 41.3068 402.531 41.2386C402.296 41.1705 401.986 41.1364 401.599 41.1364C400.713 41.1364 400.073 41.3598 399.679 41.8068C399.293 42.2538 399.099 42.9091 399.099 43.7727V63H396.418ZM419.722 63L414.403 45.5455H417.222L420.994 58.9091H421.176L424.903 45.5455H427.767L431.449 58.8636H431.631L435.403 45.5455H438.222L432.903 63H430.267L426.449 49.5909H426.176L422.358 63H419.722ZM446.903 63.4091C445.797 63.4091 444.794 63.2008 443.892 62.7841C442.991 62.3598 442.275 61.75 441.744 60.9545C441.214 60.1515 440.949 59.1818 440.949 58.0455C440.949 57.0455 441.146 56.2348 441.54 55.6136C441.934 54.9848 442.46 54.4924 443.119 54.1364C443.778 53.7803 444.506 53.5152 445.301 53.3409C446.104 53.1591 446.911 53.0152 447.722 52.9091C448.782 52.7727 449.642 52.6705 450.301 52.6023C450.968 52.5265 451.453 52.4015 451.756 52.2273C452.066 52.053 452.222 51.75 452.222 51.3182V51.2273C452.222 50.1061 451.915 49.2348 451.301 48.6136C450.695 47.9924 449.775 47.6818 448.54 47.6818C447.259 47.6818 446.256 47.9621 445.528 48.5227C444.801 49.0833 444.29 49.6818 443.994 50.3182L441.449 49.4091C441.903 48.3485 442.509 47.5227 443.267 46.9318C444.032 46.3333 444.866 45.9167 445.767 45.6818C446.676 45.4394 447.57 45.3182 448.449 45.3182C449.009 45.3182 449.653 45.3864 450.381 45.5227C451.116 45.6515 451.824 45.9205 452.506 46.3295C453.195 46.7386 453.767 47.3561 454.222 48.1818C454.676 49.0076 454.903 50.1136 454.903 51.5V63H452.222V60.6364H452.085C451.903 61.0152 451.6 61.4205 451.176 61.8523C450.752 62.2841 450.188 62.6515 449.483 62.9545C448.778 63.2576 447.919 63.4091 446.903 63.4091ZM447.312 61C448.373 61 449.267 60.7917 449.994 60.375C450.729 59.9583 451.282 59.4205 451.653 58.7614C452.032 58.1023 452.222 57.4091 452.222 56.6818V54.2273C452.108 54.3636 451.858 54.4886 451.472 54.6023C451.093 54.7083 450.653 54.803 450.153 54.8864C449.661 54.9621 449.18 55.0303 448.71 55.0909C448.248 55.1439 447.873 55.1894 447.585 55.2273C446.888 55.3182 446.237 55.4659 445.631 55.6705C445.032 55.8674 444.547 56.1667 444.176 56.5682C443.813 56.9621 443.631 57.5 443.631 58.1818C443.631 59.1136 443.975 59.8182 444.665 60.2955C445.362 60.7652 446.244 61 447.312 61ZM460.901 69.5455C460.446 69.5455 460.041 69.5076 459.685 69.4318C459.329 69.3636 459.082 69.2955 458.946 69.2273L459.628 66.8636C460.279 67.0303 460.855 67.0909 461.355 67.0455C461.855 67 462.298 66.7765 462.685 66.375C463.079 65.9811 463.438 65.3409 463.764 64.4545L464.264 63.0909L457.81 45.5455H460.719L465.537 59.4545H465.719L470.537 45.5455H473.446L466.037 65.5455C465.704 66.447 465.291 67.1932 464.798 67.7841C464.306 68.3826 463.734 68.8258 463.082 69.1136C462.438 69.4015 461.711 69.5455 460.901 69.5455ZM489.349 49.4545L486.94 50.1364C486.789 49.7348 486.565 49.3447 486.27 48.9659C485.982 48.5795 485.588 48.2614 485.088 48.0114C484.588 47.7614 483.948 47.6364 483.168 47.6364C482.099 47.6364 481.209 47.8826 480.497 48.375C479.793 48.8598 479.44 49.4773 479.44 50.2273C479.44 50.8939 479.683 51.4205 480.168 51.8068C480.652 52.1932 481.41 52.5152 482.44 52.7727L485.031 53.4091C486.592 53.7879 487.755 54.3674 488.52 55.1477C489.285 55.9205 489.668 56.9167 489.668 58.1364C489.668 59.1364 489.38 60.0303 488.804 60.8182C488.236 61.6061 487.44 62.2273 486.418 62.6818C485.395 63.1364 484.205 63.3636 482.849 63.3636C481.069 63.3636 479.596 62.9773 478.429 62.2045C477.262 61.4318 476.524 60.303 476.213 58.8182L478.759 58.1818C479.001 59.1212 479.459 59.8258 480.134 60.2955C480.815 60.7652 481.705 61 482.804 61C484.054 61 485.046 60.7348 485.781 60.2045C486.524 59.6667 486.895 59.0227 486.895 58.2727C486.895 57.6667 486.683 57.1591 486.259 56.75C485.834 56.3333 485.183 56.0227 484.304 55.8182L481.395 55.1364C479.796 54.7576 478.622 54.1705 477.872 53.375C477.13 52.572 476.759 51.5682 476.759 50.3636C476.759 49.3788 477.035 48.5076 477.588 47.75C478.149 46.9924 478.91 46.3977 479.872 45.9659C480.842 45.5341 481.94 45.3182 483.168 45.3182C484.895 45.3182 486.251 45.697 487.236 46.4545C488.228 47.2121 488.933 48.2121 489.349 49.4545Z" fill="white"/>
</svg>
